M48
;Layer_Color=9474304
;FILE_FORMAT=2:5
INCH,TZ
;TYPE=PLATED
T1F00S00C0.01575
T2F00S00C0.02795
T3F00S00C0.02953
T5F00S00C0.03543
T6F00S00C0.03583
T8F00S00C0.07874
;TYPE=NON_PLATED
T9F00S00C0.09449
%
T01
X47500Y46059
X52000Y57513
X122400Y66700
X133800
X128200Y81100
X131000Y91000
X145800Y88400
X140700Y80000
X142900Y121424
X128600Y115200
X133121Y18368
X168900Y41400
X160000Y110000
X157400Y121500
X163500Y130200
X169700Y177000
T02
X12386Y97878
Y105752
Y113626
Y121500
Y129374
Y137248
Y145122
Y152996
X99000
Y145122
Y137248
Y129374
Y121500
Y113626
Y105752
Y97878
Y160870
Y168744
X12386
Y160870
T03
X110500Y22000
Y42000
T05
X52000Y15000
X57000
X62000
X178000Y93000
X188000
Y103000
X178000
Y113000
X188000
T06
X20000Y30315
Y40158
Y50000
Y59843
T08
X7000Y7000
X189500Y7500
X131000Y192000
X11500Y191000
T09
X177000Y177000
M30
