G04*
G04 #@! TF.GenerationSoftware,Altium Limited,Altium Designer,20.2.3 (150)*
G04*
G04 Layer_Physical_Order=2*
G04 Layer_Color=16711680*
%FSLAX25Y25*%
%MOIN*%
G70*
G04*
G04 #@! TF.SameCoordinates,2D8D508D-747A-419C-BB13-FC6C21BFBE3A*
G04*
G04*
G04 #@! TF.FilePolarity,Positive*
G04*
G01*
G75*
%ADD14C,0.01000*%
%ADD22R,0.05906X0.05906*%
%ADD41R,0.14173X0.06299*%
G04:AMPARAMS|DCode=42|XSize=62.99mil|YSize=141.73mil|CornerRadius=31.5mil|HoleSize=0mil|Usage=FLASHONLY|Rotation=270.000|XOffset=0mil|YOffset=0mil|HoleType=Round|Shape=RoundedRectangle|*
%AMROUNDEDRECTD42*
21,1,0.06299,0.07874,0,0,270.0*
21,1,0.00000,0.14173,0,0,270.0*
1,1,0.06299,-0.03937,0.00000*
1,1,0.06299,-0.03937,0.00000*
1,1,0.06299,0.03937,0.00000*
1,1,0.06299,0.03937,0.00000*
%
%ADD42ROUNDEDRECTD42*%
G04:AMPARAMS|DCode=43|XSize=141.73mil|YSize=62.99mil|CornerRadius=31.5mil|HoleSize=0mil|Usage=FLASHONLY|Rotation=270.000|XOffset=0mil|YOffset=0mil|HoleType=Round|Shape=RoundedRectangle|*
%AMROUNDEDRECTD43*
21,1,0.14173,0.00000,0,0,270.0*
21,1,0.07874,0.06299,0,0,270.0*
1,1,0.06299,0.00000,-0.03937*
1,1,0.06299,0.00000,0.03937*
1,1,0.06299,0.00000,0.03937*
1,1,0.06299,0.00000,-0.03937*
%
%ADD43ROUNDEDRECTD43*%
%ADD44C,0.09449*%
G04:AMPARAMS|DCode=45|XSize=55.12mil|YSize=149.61mil|CornerRadius=27.56mil|HoleSize=0mil|Usage=FLASHONLY|Rotation=270.000|XOffset=0mil|YOffset=0mil|HoleType=Round|Shape=RoundedRectangle|*
%AMROUNDEDRECTD45*
21,1,0.05512,0.09449,0,0,270.0*
21,1,0.00000,0.14961,0,0,270.0*
1,1,0.05512,-0.04724,0.00000*
1,1,0.05512,-0.04724,0.00000*
1,1,0.05512,0.04724,0.00000*
1,1,0.05512,0.04724,0.00000*
%
%ADD45ROUNDEDRECTD45*%
%ADD52C,0.05575*%
%ADD53R,0.05575X0.05575*%
%ADD54C,0.11811*%
%ADD55C,0.04331*%
%ADD56O,0.03937X0.07874*%
%ADD57O,0.03937X0.07874*%
%ADD58C,0.05906*%
%ADD59C,0.04921*%
%ADD60C,0.03150*%
D14*
X163796Y169454D02*
X163793Y169451D01*
X163935Y169577D02*
X164599Y170302D01*
X165096Y171151D01*
X165404Y172085D01*
X165508Y173063D01*
X163500Y169158D02*
X163793Y169451D01*
X163796Y169454D02*
X163935Y169577D01*
X165508Y173063D02*
Y177000D01*
X169700D01*
X163500Y130200D02*
Y169158D01*
X186200Y94800D02*
X188000D01*
Y93000D02*
Y94800D01*
X186200D02*
X188000Y93000D01*
X140700Y80000D02*
Y90200D01*
X139472Y104000D02*
X167997D01*
X131000Y95528D02*
X139472Y104000D01*
X131000Y91000D02*
Y95528D01*
X134300Y96000D02*
X139300Y101000D01*
X140700Y90200D02*
X142000Y91500D01*
X133800Y66700D02*
X134300Y67200D01*
X137200Y95248D02*
X139826Y97874D01*
X137200Y62100D02*
Y95248D01*
X142000Y91500D02*
X161200D01*
X134300Y67200D02*
Y96000D01*
X109100Y34000D02*
X137200Y62100D01*
X161200Y91500D02*
X164200Y88500D01*
X183500D01*
X188000Y93000D01*
X190000Y107500D02*
X192500Y105000D01*
Y77747D02*
Y105000D01*
X194500Y67000D02*
Y109500D01*
X168900Y41400D02*
X194500Y67000D01*
X188000Y113000D02*
X191000D01*
X194500Y109500D01*
X192500Y74000D02*
Y77747D01*
X62000Y16494D02*
X134994D01*
X20000Y30315D02*
X31756D01*
X47500Y46059D01*
X52000Y15000D02*
Y57513D01*
X110500Y42000D02*
Y63400D01*
X128200Y81100D01*
X57000Y15000D02*
Y30900D01*
X55500Y32400D02*
X57000Y30900D01*
X55500Y32400D02*
Y59562D01*
X97482Y101543D01*
X102043D01*
X110500Y110000D01*
X160000D01*
X58246Y34000D02*
X109100D01*
X139300Y101000D02*
X171400D01*
X173400Y103000D01*
X178000D01*
X152197Y189992D02*
X160708D01*
X133121Y18368D02*
X192500Y77747D01*
X183500Y107500D02*
X190000D01*
X62000Y15000D02*
Y16494D01*
X134994D02*
X192500Y74000D01*
X178000Y113000D02*
X183500Y107500D01*
X12386Y160870D02*
X63295Y109961D01*
X100518D01*
X105758Y115200D01*
X128600D01*
X8700Y156682D02*
X12386Y152996D01*
X8700Y156682D02*
Y172000D01*
X12700Y176000D01*
X59500D01*
X86400Y149100D01*
X115224D01*
X142900Y121424D01*
X110500Y22000D02*
X145800Y57300D01*
Y88400D01*
X122400Y66700D02*
X132200Y76500D01*
Y84000D01*
X127500Y88700D02*
X132200Y84000D01*
X127500Y88700D02*
Y103900D01*
X129600Y106000D01*
X162000D01*
X164000Y108000D01*
Y114900D01*
X157400Y121500D02*
X164000Y114900D01*
X167997Y104000D02*
X171497Y107500D01*
X180000D01*
X184500Y103000D01*
X188000D01*
D22*
Y93000D02*
D03*
D41*
X152197Y189992D02*
D03*
D42*
Y164008D02*
D03*
D43*
X160858Y177000D02*
D03*
D44*
X177000D02*
D03*
D45*
X181331Y191567D02*
D03*
Y162433D02*
D03*
D52*
X20000Y59843D02*
D03*
Y50000D02*
D03*
Y40158D02*
D03*
D53*
Y30315D02*
D03*
D54*
X131000Y192000D02*
D03*
X189500Y7500D02*
D03*
X7000Y7000D02*
D03*
X11500Y191000D02*
D03*
D55*
X12386Y168744D02*
D03*
Y160870D02*
D03*
Y152996D02*
D03*
Y145122D02*
D03*
Y137248D02*
D03*
Y129374D02*
D03*
Y121500D02*
D03*
Y113626D02*
D03*
Y105752D02*
D03*
Y97878D02*
D03*
X99000D02*
D03*
Y105752D02*
D03*
Y113626D02*
D03*
Y121500D02*
D03*
Y129374D02*
D03*
Y137248D02*
D03*
Y145122D02*
D03*
Y152996D02*
D03*
Y160870D02*
D03*
Y168744D02*
D03*
D56*
X62000Y15000D02*
D03*
X52000D02*
D03*
D57*
X57000D02*
D03*
D58*
X178000Y93000D02*
D03*
X188000Y103000D02*
D03*
X178000D02*
D03*
X188000Y113000D02*
D03*
X178000D02*
D03*
D59*
X110500Y22000D02*
D03*
Y42000D02*
D03*
D60*
X140700Y80000D02*
D03*
X131000Y91000D02*
D03*
X47500Y46059D02*
D03*
X52000Y57513D02*
D03*
X128200Y81100D02*
D03*
X169700Y177000D02*
D03*
X160000Y110000D02*
D03*
X133800Y66700D02*
D03*
X163500Y130200D02*
D03*
X133121Y18368D02*
D03*
X128600Y115200D02*
D03*
X142900Y121424D02*
D03*
X145800Y88400D02*
D03*
X122400Y66700D02*
D03*
X157400Y121500D02*
D03*
X168900Y41400D02*
D03*
M02*
