G04*
G04 #@! TF.GenerationSoftware,Altium Limited,Altium Designer,20.2.3 (150)*
G04*
G04 Layer_Color=16711935*
%FSLAX25Y25*%
%MOIN*%
G70*
G04*
G04 #@! TF.SameCoordinates,EDF52478-F8C3-47BA-AB45-1EA7DCE04F01*
G04*
G04*
G04 #@! TF.FilePolarity,Negative*
G04*
G01*
G75*
%ADD32R,0.06706X0.06706*%
%ADD38C,0.06375*%
%ADD39R,0.06375X0.06375*%
%ADD40C,0.12611*%
%ADD41R,0.14173X0.06299*%
G04:AMPARAMS|DCode=42|XSize=62.99mil|YSize=141.73mil|CornerRadius=31.5mil|HoleSize=0mil|Usage=FLASHONLY|Rotation=270.000|XOffset=0mil|YOffset=0mil|HoleType=Round|Shape=RoundedRectangle|*
%AMROUNDEDRECTD42*
21,1,0.06299,0.07874,0,0,270.0*
21,1,0.00000,0.14173,0,0,270.0*
1,1,0.06299,-0.03937,0.00000*
1,1,0.06299,-0.03937,0.00000*
1,1,0.06299,0.03937,0.00000*
1,1,0.06299,0.03937,0.00000*
%
%ADD42ROUNDEDRECTD42*%
G04:AMPARAMS|DCode=43|XSize=141.73mil|YSize=62.99mil|CornerRadius=31.5mil|HoleSize=0mil|Usage=FLASHONLY|Rotation=270.000|XOffset=0mil|YOffset=0mil|HoleType=Round|Shape=RoundedRectangle|*
%AMROUNDEDRECTD43*
21,1,0.14173,0.00000,0,0,270.0*
21,1,0.07874,0.06299,0,0,270.0*
1,1,0.06299,0.00000,-0.03937*
1,1,0.06299,0.00000,0.03937*
1,1,0.06299,0.00000,0.03937*
1,1,0.06299,0.00000,-0.03937*
%
%ADD43ROUNDEDRECTD43*%
%ADD44C,0.09449*%
G04:AMPARAMS|DCode=45|XSize=55.12mil|YSize=149.61mil|CornerRadius=27.56mil|HoleSize=0mil|Usage=FLASHONLY|Rotation=270.000|XOffset=0mil|YOffset=0mil|HoleType=Round|Shape=RoundedRectangle|*
%AMROUNDEDRECTD45*
21,1,0.05512,0.09449,0,0,270.0*
21,1,0.00000,0.14961,0,0,270.0*
1,1,0.05512,-0.04724,0.00000*
1,1,0.05512,-0.04724,0.00000*
1,1,0.05512,0.04724,0.00000*
1,1,0.05512,0.04724,0.00000*
%
%ADD45ROUNDEDRECTD45*%
%ADD46C,0.05131*%
%ADD47O,0.04737X0.08674*%
%ADD48O,0.04737X0.08674*%
%ADD49C,0.06706*%
%ADD50C,0.05721*%
%ADD51C,0.03950*%
D32*
X188000Y93000D02*
D03*
D38*
X20000Y59843D02*
D03*
Y50000D02*
D03*
Y40158D02*
D03*
D39*
Y30315D02*
D03*
D40*
X131000Y192000D02*
D03*
X189000Y8500D02*
D03*
X7000Y7000D02*
D03*
X11500Y191000D02*
D03*
D41*
X152197Y189992D02*
D03*
D42*
Y164008D02*
D03*
D43*
X160858Y177000D02*
D03*
D44*
X177000D02*
D03*
D45*
X181331Y191567D02*
D03*
Y162433D02*
D03*
D46*
X12386Y168744D02*
D03*
Y160870D02*
D03*
Y152996D02*
D03*
Y145122D02*
D03*
Y137248D02*
D03*
Y129374D02*
D03*
Y121500D02*
D03*
Y113626D02*
D03*
Y105752D02*
D03*
Y97878D02*
D03*
X99000D02*
D03*
Y105752D02*
D03*
Y113626D02*
D03*
Y121500D02*
D03*
Y129374D02*
D03*
Y137248D02*
D03*
Y145122D02*
D03*
Y152996D02*
D03*
Y160870D02*
D03*
Y168744D02*
D03*
D47*
X62000Y15000D02*
D03*
X52000D02*
D03*
D48*
X57000D02*
D03*
D49*
X178000Y93000D02*
D03*
X188000Y103000D02*
D03*
X178000D02*
D03*
X188000Y113000D02*
D03*
X178000D02*
D03*
D50*
X110500Y22000D02*
D03*
Y42000D02*
D03*
D51*
X162500Y41000D02*
D03*
X132400Y85276D02*
D03*
X130126Y116648D02*
D03*
X133700Y53700D02*
D03*
X149500Y37900D02*
D03*
X121926Y60500D02*
D03*
X60300Y72700D02*
D03*
X139300Y116024D02*
D03*
X138200Y33700D02*
D03*
X156100Y76000D02*
D03*
X146400Y100700D02*
D03*
X145500Y68200D02*
D03*
X149024Y86900D02*
D03*
M02*
