G04*
G04 #@! TF.GenerationSoftware,Altium Limited,Altium Designer,20.2.3 (150)*
G04*
G04 Layer_Physical_Order=1*
G04 Layer_Color=255*
%FSLAX25Y25*%
%MOIN*%
G70*
G04*
G04 #@! TF.SameCoordinates,2D8D508D-747A-419C-BB13-FC6C21BFBE3A*
G04*
G04*
G04 #@! TF.FilePolarity,Positive*
G04*
G01*
G75*
%ADD14C,0.01000*%
%ADD18R,0.05906X0.07874*%
%ADD19R,0.03543X0.03150*%
%ADD20R,0.06693X0.04331*%
%ADD21R,0.03543X0.02756*%
%ADD22R,0.05906X0.05906*%
%ADD23O,0.06496X0.02165*%
%ADD24O,0.02165X0.06496*%
%ADD25R,0.04528X0.05512*%
%ADD26R,0.03740X0.05118*%
%ADD27R,0.12795X0.05118*%
%ADD41R,0.14173X0.06299*%
G04:AMPARAMS|DCode=42|XSize=62.99mil|YSize=141.73mil|CornerRadius=31.5mil|HoleSize=0mil|Usage=FLASHONLY|Rotation=270.000|XOffset=0mil|YOffset=0mil|HoleType=Round|Shape=RoundedRectangle|*
%AMROUNDEDRECTD42*
21,1,0.06299,0.07874,0,0,270.0*
21,1,0.00000,0.14173,0,0,270.0*
1,1,0.06299,-0.03937,0.00000*
1,1,0.06299,-0.03937,0.00000*
1,1,0.06299,0.03937,0.00000*
1,1,0.06299,0.03937,0.00000*
%
%ADD42ROUNDEDRECTD42*%
G04:AMPARAMS|DCode=43|XSize=141.73mil|YSize=62.99mil|CornerRadius=31.5mil|HoleSize=0mil|Usage=FLASHONLY|Rotation=270.000|XOffset=0mil|YOffset=0mil|HoleType=Round|Shape=RoundedRectangle|*
%AMROUNDEDRECTD43*
21,1,0.14173,0.00000,0,0,270.0*
21,1,0.07874,0.06299,0,0,270.0*
1,1,0.06299,0.00000,-0.03937*
1,1,0.06299,0.00000,0.03937*
1,1,0.06299,0.00000,0.03937*
1,1,0.06299,0.00000,-0.03937*
%
%ADD43ROUNDEDRECTD43*%
%ADD44C,0.09449*%
G04:AMPARAMS|DCode=45|XSize=55.12mil|YSize=149.61mil|CornerRadius=27.56mil|HoleSize=0mil|Usage=FLASHONLY|Rotation=270.000|XOffset=0mil|YOffset=0mil|HoleType=Round|Shape=RoundedRectangle|*
%AMROUNDEDRECTD45*
21,1,0.05512,0.09449,0,0,270.0*
21,1,0.00000,0.14961,0,0,270.0*
1,1,0.05512,-0.04724,0.00000*
1,1,0.05512,-0.04724,0.00000*
1,1,0.05512,0.04724,0.00000*
1,1,0.05512,0.04724,0.00000*
%
%ADD45ROUNDEDRECTD45*%
%ADD52C,0.05575*%
%ADD53R,0.05575X0.05575*%
%ADD54C,0.11811*%
%ADD55C,0.04331*%
%ADD56O,0.03937X0.07874*%
%ADD57O,0.03937X0.07874*%
%ADD58C,0.05906*%
%ADD59C,0.04921*%
%ADD60C,0.03150*%
D14*
X150977Y79199D02*
X154312D01*
X145282Y84894D02*
X150977Y79199D01*
X137106Y84894D02*
X145282D01*
X154312Y79199D02*
X154535Y78976D01*
X131000Y91000D02*
X137106Y84894D01*
X140700Y80000D02*
X147348D01*
X128200Y87000D02*
Y88375D01*
Y81100D02*
Y87000D01*
X121465Y85276D02*
X126476D01*
X128200Y87000D01*
X188500Y22300D02*
Y24000D01*
Y42400D01*
X173447Y57453D02*
X188500Y42400D01*
X171200Y59700D02*
X173447Y57453D01*
X168000Y62900D02*
X171200Y59700D01*
X168000Y62900D02*
Y89200D01*
Y57453D02*
Y62900D01*
X184000Y19500D02*
X185700D01*
X157154Y35701D02*
Y45020D01*
Y30000D02*
Y35701D01*
X55300Y43000D02*
Y61600D01*
X50728Y57028D02*
X55300Y61600D01*
X50728Y42831D02*
X51606Y41953D01*
X47500Y46059D02*
X50728Y42831D01*
X160858Y145173D02*
X161185Y145500D01*
X184000Y66700D02*
X188000D01*
X181200Y8870D02*
Y12100D01*
X162000Y8870D02*
X178000D01*
X160970D02*
X162000D01*
X143700Y21945D02*
Y47185D01*
X62000Y20000D02*
Y24327D01*
Y15000D02*
Y20000D01*
X57811Y29311D02*
X66984D01*
X53800Y25300D02*
X57811Y29311D01*
X48500Y20000D02*
X53800Y25300D01*
X164900Y73055D02*
Y85225D01*
Y73000D02*
Y73055D01*
Y35000D02*
Y73000D01*
X164845D02*
X164900Y73055D01*
X146200Y24000D02*
Y33756D01*
Y16000D02*
Y24000D01*
X142000Y11800D02*
X146000D01*
X130300D02*
X142000D01*
X122400Y66700D02*
Y78976D01*
X168900Y41400D02*
Y51547D01*
X51606Y57513D02*
X52000D01*
X51606Y41953D02*
X52000D01*
X169000Y57453D02*
X173447D01*
X185700Y19500D02*
X188500Y22300D01*
X49658Y29311D02*
X57811D01*
X15000Y38500D02*
Y54843D01*
X20000Y59843D01*
X48500Y9600D02*
X53600Y4500D01*
X48500Y9600D02*
Y20000D01*
X169700Y177000D02*
Y184292D01*
X160000Y103024D02*
Y110000D01*
X158000Y101024D02*
X160000Y103024D01*
X139826Y97874D02*
X154535D01*
X146200Y33756D02*
X149500D01*
X142000Y11800D02*
X146200Y16000D01*
X128100Y14000D02*
Y20000D01*
X131100Y23000D01*
X140300D01*
Y61800D02*
X146000D01*
X160200Y76000D01*
X161700Y88425D02*
X164900Y85225D01*
X145500Y57815D02*
X149660D01*
X62000Y24327D02*
X66984Y29311D01*
X125000Y91575D02*
X128200Y88375D01*
X48700Y67500D02*
X55300D01*
X54253Y41953D02*
X55300Y43000D01*
X52000Y41953D02*
X54253D01*
X145874Y70000D02*
Y73465D01*
X142574Y66700D02*
X145874Y70000D01*
X133800Y66700D02*
X142574D01*
X88000Y16453D02*
Y25638D01*
X91016Y42000D02*
X110500D01*
X164000Y189992D02*
X169700Y184292D01*
X108000Y127400D02*
X110500Y124900D01*
X108000Y127400D02*
Y145795D01*
X163500Y130200D02*
X165847Y132547D01*
X174500Y19500D02*
X178000D01*
X165756Y28244D02*
X174500Y19500D01*
X157154Y30000D02*
X158909Y28244D01*
X149500D02*
X149697D01*
X157154Y45020D02*
X158819Y46685D01*
X177685Y9185D02*
X178000Y8870D01*
X66984Y58584D02*
X69000Y60600D01*
X178000Y8870D02*
X181200D01*
Y12100D02*
X190500Y21400D01*
Y64200D01*
X184000Y66642D02*
Y66700D01*
X69000Y64370D02*
X77000D01*
X12386Y67457D02*
X20000Y59843D01*
X12386Y67457D02*
Y97878D01*
X134800Y20047D02*
X137000D01*
X141802D01*
X143700Y21945D01*
X145500Y47185D02*
X147600D01*
X157730Y57315D02*
X160000D01*
X184000Y145500D02*
X185500Y144000D01*
X160858Y145173D02*
Y177000D01*
X145484Y136815D02*
X152500D01*
X138150Y135099D02*
Y136331D01*
X118200Y136815D02*
X123015Y132000D01*
X130850D02*
X131850Y131000D01*
X123015Y132000D02*
X130850D01*
X117000Y136815D02*
X118200D01*
X131850Y124800D02*
Y127669D01*
X116700Y109650D02*
X131850Y124800D01*
X118000Y94724D02*
X121465D01*
X116700Y89725D02*
Y93424D01*
Y89725D02*
X118000Y88425D01*
X121465Y94724D02*
X135276D01*
X138425Y91575D01*
X154535D01*
X128600Y115200D02*
X130126Y113674D01*
X133276Y111800D02*
X142900Y121424D01*
X110500Y22000D02*
X114453Y25953D01*
X145800Y88400D02*
X148924Y85276D01*
X34600Y69947D02*
X40000Y64547D01*
Y95130D02*
X66685D01*
X86000Y75815D02*
Y95130D01*
X12386Y168744D02*
X86000Y95130D01*
X87200Y75815D02*
X90728Y79343D01*
X107453D01*
X96600Y45800D02*
X107453Y56653D01*
X76000Y36600D02*
X85200Y45800D01*
X161000Y33756D02*
X163656D01*
X164900Y35000D01*
X154535Y88425D02*
X161700D01*
X154015Y19815D02*
X162000D01*
X160200Y76000D02*
Y80000D01*
X158074Y82126D02*
X160200Y80000D01*
X117600Y82126D02*
X121465D01*
X131850Y136331D02*
Y140000D01*
X112100Y126185D02*
X117000D01*
X112100D02*
Y140000D01*
X116100Y144000D02*
X127850D01*
X131850Y140000D01*
X156215Y126185D02*
X157400Y125000D01*
X138150Y127669D02*
X144500D01*
X96547Y77343D02*
X105453D01*
Y63563D02*
Y77343D01*
X101000Y59110D02*
X105453Y63563D01*
X160400Y124100D02*
X160500Y124000D01*
X160400Y124100D02*
Y134000D01*
X161900Y135500D02*
X171500D01*
X174800Y98500D02*
X180000D01*
X183000Y101500D01*
Y108000D01*
X184000Y34358D02*
Y36547D01*
X172922Y138453D02*
X173500Y137875D01*
Y111000D02*
Y137875D01*
Y111000D02*
X176000Y108500D01*
X180000D01*
X182500Y127220D02*
X185500Y130220D01*
X51606Y36047D02*
X52000D01*
X47496Y40158D02*
X51606Y36047D01*
X20000Y40158D02*
X47496D01*
X65400Y9500D02*
X66447Y10547D01*
X88000D01*
X149660Y57815D02*
X164845Y73000D01*
X164900D01*
X49700Y75000D02*
X69000D01*
X152500Y136815D02*
X160858Y145173D01*
X130850Y132000D02*
X135050D01*
X116700Y93424D02*
X118000Y94724D01*
X116700Y93424D02*
Y109650D01*
X150385Y19815D02*
X154015D01*
X188000Y66700D02*
X190500Y64200D01*
X143700Y47185D02*
X145500D01*
X114453Y25953D02*
X137000D01*
X148924Y85276D02*
X154535D01*
X149024Y73465D02*
Y78324D01*
X147348Y80000D02*
X149024Y78324D01*
X121465Y78976D02*
X122400D01*
X157400Y121500D02*
Y125000D01*
X152500Y126185D02*
X156215D01*
X52000Y70453D02*
X89657D01*
X96547Y77343D01*
X168000Y138453D02*
X172922D01*
X180000Y108500D02*
X182500Y111000D01*
Y127220D01*
X154535Y101024D02*
X158000D01*
X52000Y36047D02*
X56199D01*
X58246Y34000D01*
X139800Y97900D02*
X139826Y97874D01*
X112100Y140000D02*
X116100Y144000D01*
X114000Y85726D02*
X117600Y82126D01*
X114000Y85726D02*
Y124285D01*
X112100Y126185D02*
X114000Y124285D01*
X146200Y24000D02*
X150385Y19815D01*
X40000Y64547D02*
X52000D01*
X34600Y69947D02*
Y89730D01*
X40000Y95130D01*
X66685D02*
X86000Y75815D01*
X118000Y88425D02*
X121465D01*
X135050Y132000D02*
X138150Y135099D01*
X131850Y127669D02*
Y131000D01*
X161185Y145500D02*
X184000D01*
X133121Y18368D02*
X134800Y20047D01*
X158909Y28244D02*
X161000D01*
X158819Y46685D02*
X160000D01*
X168000Y57453D02*
X169000D01*
X121465Y91575D02*
X125000D01*
X110500Y42000D02*
Y124900D01*
X108000Y145795D02*
X152197Y189992D01*
X50728Y42831D02*
Y57028D01*
X55300Y61600D02*
Y67500D01*
X48700D02*
Y74000D01*
X49700Y75000D01*
X85016Y28622D02*
X88000Y25638D01*
X85016Y28622D02*
Y29311D01*
X15000Y38500D02*
X18898Y34602D01*
X44366D01*
X49658Y29311D01*
X58000Y9500D02*
X65400D01*
X57000Y10500D02*
X58000Y9500D01*
X57000Y10500D02*
Y15000D01*
X88000Y16453D02*
X90000D01*
X91300Y15153D01*
Y7500D02*
Y15153D01*
X53500Y7500D02*
X91300D01*
X52000Y9000D02*
X53500Y7500D01*
X52000Y9000D02*
Y15000D01*
X161000Y28244D02*
X165756D01*
X168900Y51547D02*
X169000D01*
X183000Y108000D02*
X188000Y113000D01*
X171500Y101800D02*
X174800Y98500D01*
X171500Y101800D02*
Y135500D01*
X160400Y134000D02*
X161900Y135500D01*
X160500Y118500D02*
Y124000D01*
X154000Y112000D02*
X160500Y118500D01*
X138425Y112000D02*
X154000D01*
X136425Y110000D02*
X138425Y112000D01*
X136425Y106535D02*
Y110000D01*
X156600Y4500D02*
X160970Y8870D01*
X53600Y4500D02*
X156600D01*
X53800Y25300D02*
X56700D01*
X62000Y20000D01*
X154535Y82126D02*
X158074D01*
X140300Y23000D02*
Y61800D01*
X128100Y14000D02*
X130300Y11800D01*
X146000D02*
X154015Y19815D01*
X152197Y189992D02*
X164000D01*
X169000Y51547D02*
X184000Y36547D01*
X178000Y19500D02*
X184000D01*
X188500Y24000D01*
X171200Y59700D02*
Y86000D01*
X168000Y89200D02*
X171200Y86000D01*
X168000Y89200D02*
Y132547D01*
X85016Y29311D02*
Y36000D01*
X91016Y42000D01*
X165847Y132547D02*
X168000D01*
X149697Y28244D02*
X157154Y35701D01*
X66984Y29311D02*
Y58584D01*
X69000Y60600D02*
Y64370D01*
X77000D02*
X77815Y65185D01*
X86000D01*
X162000Y9185D02*
X177685D01*
X86000Y65185D02*
X93295D01*
X101000Y72890D01*
X178000Y113000D02*
Y136500D01*
X185500Y144000D01*
X147600Y47185D02*
X157730Y57315D01*
X145000Y136331D02*
X145484Y136815D01*
X138150Y136331D02*
X145000D01*
X130126Y106535D02*
Y113674D01*
X133276Y106535D02*
Y111800D01*
X86000Y75815D02*
X87200D01*
X107453Y56653D02*
Y79343D01*
X85200Y45800D02*
X96600D01*
X76000Y29311D02*
Y36600D01*
X145984Y126185D02*
X152500D01*
X144500Y127669D02*
X145984Y126185D01*
D18*
X184000Y34358D02*
D03*
Y66642D02*
D03*
D19*
X149500Y33756D02*
D03*
Y28244D02*
D03*
X161000Y33756D02*
D03*
Y28244D02*
D03*
D20*
X145500Y57815D02*
D03*
Y47185D02*
D03*
X162000Y19815D02*
D03*
Y9185D02*
D03*
X178000Y8870D02*
D03*
Y19500D02*
D03*
X160000Y57315D02*
D03*
Y46685D02*
D03*
X152500Y136815D02*
D03*
Y126185D02*
D03*
X117000Y136815D02*
D03*
Y126185D02*
D03*
X86000Y75815D02*
D03*
Y65185D02*
D03*
X69000Y75000D02*
D03*
Y64370D02*
D03*
D21*
X169000Y51547D02*
D03*
Y57453D02*
D03*
X137000Y20047D02*
D03*
Y25953D02*
D03*
X88000Y10547D02*
D03*
Y16453D02*
D03*
X52000Y36047D02*
D03*
Y41953D02*
D03*
Y64547D02*
D03*
Y70453D02*
D03*
X168000Y132547D02*
D03*
Y138453D02*
D03*
D22*
X185500Y130220D02*
D03*
Y144000D02*
D03*
X101000Y59110D02*
D03*
Y72890D02*
D03*
X188000Y93000D02*
D03*
D23*
X121465Y101024D02*
D03*
Y97874D02*
D03*
Y94724D02*
D03*
Y91575D02*
D03*
Y88425D02*
D03*
Y85276D02*
D03*
Y82126D02*
D03*
Y78976D02*
D03*
X154535D02*
D03*
Y82126D02*
D03*
Y85276D02*
D03*
Y88425D02*
D03*
Y91575D02*
D03*
Y94724D02*
D03*
Y97874D02*
D03*
Y101024D02*
D03*
D24*
X126976Y73465D02*
D03*
X130126D02*
D03*
X133276D02*
D03*
X136425D02*
D03*
X139575D02*
D03*
X142724D02*
D03*
X145874D02*
D03*
X149024D02*
D03*
Y106535D02*
D03*
X145874D02*
D03*
X142724D02*
D03*
X139575D02*
D03*
X136425D02*
D03*
X133276D02*
D03*
X130126D02*
D03*
X126976D02*
D03*
D25*
X138150Y127669D02*
D03*
Y136331D02*
D03*
X131850D02*
D03*
Y127669D02*
D03*
D26*
X66984Y29311D02*
D03*
X76000D02*
D03*
X85016D02*
D03*
D27*
X76000Y55689D02*
D03*
D41*
X152197Y189992D02*
D03*
D42*
Y164008D02*
D03*
D43*
X160858Y177000D02*
D03*
D44*
X177000D02*
D03*
D45*
X181331Y191567D02*
D03*
Y162433D02*
D03*
D52*
X20000Y59843D02*
D03*
Y50000D02*
D03*
Y40158D02*
D03*
D53*
Y30315D02*
D03*
D54*
X131000Y192000D02*
D03*
X189500Y7500D02*
D03*
X7000Y7000D02*
D03*
X11500Y191000D02*
D03*
D55*
X12386Y168744D02*
D03*
Y160870D02*
D03*
Y152996D02*
D03*
Y145122D02*
D03*
Y137248D02*
D03*
Y129374D02*
D03*
Y121500D02*
D03*
Y113626D02*
D03*
Y105752D02*
D03*
Y97878D02*
D03*
X99000D02*
D03*
Y105752D02*
D03*
Y113626D02*
D03*
Y121500D02*
D03*
Y129374D02*
D03*
Y137248D02*
D03*
Y145122D02*
D03*
Y152996D02*
D03*
Y160870D02*
D03*
Y168744D02*
D03*
D56*
X62000Y15000D02*
D03*
X52000D02*
D03*
D57*
X57000D02*
D03*
D58*
X178000Y93000D02*
D03*
X188000Y103000D02*
D03*
X178000D02*
D03*
X188000Y113000D02*
D03*
X178000D02*
D03*
D59*
X110500Y22000D02*
D03*
Y42000D02*
D03*
D60*
X140700Y80000D02*
D03*
X131000Y91000D02*
D03*
X47500Y46059D02*
D03*
X52000Y57513D02*
D03*
X128200Y81100D02*
D03*
X169700Y177000D02*
D03*
X160000Y110000D02*
D03*
X133800Y66700D02*
D03*
X163500Y130200D02*
D03*
X133121Y18368D02*
D03*
X128600Y115200D02*
D03*
X142900Y121424D02*
D03*
X145800Y88400D02*
D03*
X122400Y66700D02*
D03*
X157400Y121500D02*
D03*
X168900Y41400D02*
D03*
M02*
