G04*
G04 #@! TF.GenerationSoftware,Altium Limited,Altium Designer,20.2.3 (150)*
G04*
G04 Layer_Color=32768*
%FSLAX25Y25*%
%MOIN*%
G70*
G04*
G04 #@! TF.SameCoordinates,87A16382-0B38-46A0-9FAD-2025A4CCFA0B*
G04*
G04*
G04 #@! TF.FilePolarity,Positive*
G04*
G01*
G75*
%ADD14C,0.00394*%
%ADD63C,0.00197*%
D14*
X8189Y11417D02*
X46378D01*
Y78740D01*
X8189D02*
X46378D01*
X8189Y11417D02*
Y78740D01*
X147630Y31000D02*
X151370D01*
X149500Y29130D02*
Y32870D01*
X151665Y26276D02*
Y35724D01*
X147335Y26276D02*
Y35724D01*
X151665D01*
X147335Y26276D02*
X151665D01*
X159130Y31000D02*
X162870D01*
X161000Y29130D02*
Y32870D01*
X163165Y26276D02*
Y35724D01*
X158835Y26276D02*
Y35724D01*
X163165D01*
X158835Y26276D02*
X163165D01*
X143531Y52500D02*
X147469D01*
X145500Y50532D02*
Y54469D01*
X149240Y44626D02*
Y60374D01*
X141760Y44626D02*
Y60374D01*
X149240D01*
X141760Y44626D02*
X149240D01*
X170531Y31500D02*
X174469D01*
X172500Y29532D02*
Y33469D01*
X176240Y23626D02*
Y39374D01*
X168760Y23626D02*
Y39374D01*
X176240D01*
X168760Y23626D02*
X176240D01*
X186531Y32000D02*
X190469D01*
X188500Y30032D02*
Y33969D01*
X192240Y24126D02*
Y39874D01*
X184760Y24126D02*
Y39874D01*
X192240D01*
X184760Y24126D02*
X192240D01*
X158031Y52000D02*
X161969D01*
X160000Y50032D02*
Y53969D01*
X163740Y44126D02*
Y59874D01*
X156260Y44126D02*
Y59874D01*
X163740D01*
X156260Y44126D02*
X163740D01*
X150531Y131500D02*
X154469D01*
X152500Y129532D02*
Y133469D01*
X156240Y123626D02*
Y139374D01*
X148760Y123626D02*
Y139374D01*
X156240D01*
X148760Y123626D02*
X156240D01*
X115031Y131500D02*
X118969D01*
X117000Y129532D02*
Y133469D01*
X120740Y123626D02*
Y139374D01*
X113260Y123626D02*
Y139374D01*
X120740D01*
X113260Y123626D02*
X120740D01*
X84031Y70500D02*
X87969D01*
X86000Y68532D02*
Y72469D01*
X89740Y62626D02*
Y78374D01*
X82260Y62626D02*
Y78374D01*
X89740D01*
X82260Y62626D02*
X89740D01*
X67032Y69685D02*
X70969D01*
X69000Y67717D02*
Y71654D01*
X72740Y61811D02*
Y77559D01*
X65260Y61811D02*
Y77559D01*
X72740D01*
X65260Y61811D02*
X72740D01*
X172335Y49776D02*
X176665D01*
X172335Y59224D02*
X176665D01*
X172335Y49776D02*
Y59224D01*
X176665Y49776D02*
Y59224D01*
X174500Y52630D02*
Y56370D01*
X172630Y54500D02*
X176370D01*
X134835Y18276D02*
X139165D01*
X134835Y27724D02*
X139165D01*
X134835Y18276D02*
Y27724D01*
X139165Y18276D02*
Y27724D01*
X137000Y21130D02*
Y24870D01*
X135130Y23000D02*
X138870D01*
X85835Y8776D02*
X90165D01*
X85835Y18224D02*
X90165D01*
X85835Y8776D02*
Y18224D01*
X90165Y8776D02*
Y18224D01*
X88000Y11630D02*
Y15370D01*
X86130Y13500D02*
X89870D01*
X49835Y34276D02*
X54165D01*
X49835Y43724D02*
X54165D01*
X49835Y34276D02*
Y43724D01*
X54165Y34276D02*
Y43724D01*
X52000Y37130D02*
Y40870D01*
X50130Y39000D02*
X53870D01*
X49835Y62776D02*
X54165D01*
X49835Y72224D02*
X54165D01*
X49835Y62776D02*
Y72224D01*
X54165Y62776D02*
Y72224D01*
X52000Y65630D02*
Y69370D01*
X50130Y67500D02*
X53870D01*
X165835Y130776D02*
X170165D01*
X165835Y140224D02*
X170165D01*
X165835Y130776D02*
Y140224D01*
X170165Y130776D02*
Y140224D01*
X168000Y133630D02*
Y137370D01*
X166130Y135500D02*
X169870D01*
X55031Y15000D02*
X58969D01*
X57000Y13032D02*
Y16969D01*
X110500Y30031D02*
Y33968D01*
X108532Y32000D02*
X112469D01*
X136032Y90000D02*
X139969D01*
X138000Y88032D02*
Y91969D01*
X133032Y132000D02*
X136969D01*
X135000Y130032D02*
Y133969D01*
D63*
X129004Y32000D02*
X128977Y33002D01*
X128895Y34001D01*
X128760Y34994D01*
X128571Y35978D01*
X128330Y36950D01*
X128035Y37908D01*
X127690Y38849D01*
X127294Y39770D01*
X126848Y40667D01*
X126355Y41540D01*
X125815Y42384D01*
X125231Y43198D01*
X124603Y43979D01*
X123934Y44725D01*
X123225Y45434D01*
X122479Y46103D01*
X121698Y46731D01*
X120884Y47315D01*
X120040Y47855D01*
X119167Y48349D01*
X118270Y48794D01*
X117349Y49190D01*
X116408Y49535D01*
X115450Y49830D01*
X114478Y50071D01*
X113494Y50260D01*
X112501Y50396D01*
X111502Y50477D01*
X110500Y50504D01*
X109498Y50477D01*
X108499Y50396D01*
X107506Y50260D01*
X106522Y50071D01*
X105550Y49830D01*
X104592Y49535D01*
X103651Y49190D01*
X102730Y48794D01*
X101833Y48349D01*
X100960Y47855D01*
X100116Y47315D01*
X99302Y46731D01*
X98521Y46103D01*
X97775Y45434D01*
X97066Y44725D01*
X96397Y43979D01*
X95769Y43198D01*
X95184Y42384D01*
X94645Y41540D01*
X94152Y40667D01*
X93706Y39770D01*
X93310Y38849D01*
X92965Y37908D01*
X92671Y36950D01*
X92429Y35978D01*
X92240Y34994D01*
X92105Y34001D01*
X92023Y33002D01*
X91996Y32000D01*
X92023Y30998D01*
X92105Y29999D01*
X92240Y29006D01*
X92429Y28022D01*
X92671Y27050D01*
X92965Y26092D01*
X93310Y25151D01*
X93706Y24230D01*
X94152Y23333D01*
X94645Y22460D01*
X95184Y21616D01*
X95769Y20802D01*
X96397Y20021D01*
X97066Y19275D01*
X97775Y18566D01*
X98521Y17897D01*
X99302Y17269D01*
X100116Y16684D01*
X100960Y16145D01*
X101833Y15652D01*
X102731Y15206D01*
X103651Y14810D01*
X104592Y14465D01*
X105550Y14171D01*
X106522Y13929D01*
X107507Y13740D01*
X108500Y13604D01*
X109498Y13523D01*
X110500Y13496D01*
X111502Y13523D01*
X112501Y13604D01*
X113494Y13740D01*
X114478Y13929D01*
X115450Y14171D01*
X116408Y14465D01*
X117349Y14810D01*
X118270Y15206D01*
X119167Y15652D01*
X120040Y16145D01*
X120884Y16684D01*
X121698Y17269D01*
X122479Y17897D01*
X123225Y18566D01*
X123934Y19275D01*
X124603Y20021D01*
X125231Y20802D01*
X125816Y21616D01*
X126355Y22460D01*
X126848Y23333D01*
X127294Y24230D01*
X127690Y25151D01*
X128035Y26092D01*
X128330Y27050D01*
X128571Y28022D01*
X128760Y29006D01*
X128895Y30000D01*
X128977Y30998D01*
X129004Y32000D01*
X117331Y69331D02*
Y110669D01*
X158669Y69331D02*
Y110669D01*
X117331D02*
X158669D01*
X117331Y69331D02*
X158669D01*
X129193Y124520D02*
Y139480D01*
X140807D01*
Y124520D02*
Y139480D01*
X129193Y124520D02*
X140807D01*
X61807Y25768D02*
Y59232D01*
X90193D01*
Y25768D02*
Y59232D01*
X61807Y25768D02*
X90193D01*
M02*
