G04*
G04 #@! TF.GenerationSoftware,Altium Limited,Altium Designer,20.2.3 (150)*
G04*
G04 Layer_Physical_Order=2*
G04 Layer_Color=16711680*
%FSLAX25Y25*%
%MOIN*%
G70*
G04*
G04 #@! TF.SameCoordinates,87A16382-0B38-46A0-9FAD-2025A4CCFA0B*
G04*
G04*
G04 #@! TF.FilePolarity,Positive*
G04*
G01*
G75*
%ADD13C,0.01000*%
%ADD21R,0.05906X0.05906*%
%ADD39R,0.14173X0.06299*%
G04:AMPARAMS|DCode=40|XSize=62.99mil|YSize=141.73mil|CornerRadius=31.5mil|HoleSize=0mil|Usage=FLASHONLY|Rotation=270.000|XOffset=0mil|YOffset=0mil|HoleType=Round|Shape=RoundedRectangle|*
%AMROUNDEDRECTD40*
21,1,0.06299,0.07874,0,0,270.0*
21,1,0.00000,0.14173,0,0,270.0*
1,1,0.06299,-0.03937,0.00000*
1,1,0.06299,-0.03937,0.00000*
1,1,0.06299,0.03937,0.00000*
1,1,0.06299,0.03937,0.00000*
%
%ADD40ROUNDEDRECTD40*%
G04:AMPARAMS|DCode=41|XSize=141.73mil|YSize=62.99mil|CornerRadius=31.5mil|HoleSize=0mil|Usage=FLASHONLY|Rotation=270.000|XOffset=0mil|YOffset=0mil|HoleType=Round|Shape=RoundedRectangle|*
%AMROUNDEDRECTD41*
21,1,0.14173,0.00000,0,0,270.0*
21,1,0.07874,0.06299,0,0,270.0*
1,1,0.06299,0.00000,-0.03937*
1,1,0.06299,0.00000,0.03937*
1,1,0.06299,0.00000,0.03937*
1,1,0.06299,0.00000,-0.03937*
%
%ADD41ROUNDEDRECTD41*%
%ADD42C,0.09449*%
G04:AMPARAMS|DCode=43|XSize=55.12mil|YSize=149.61mil|CornerRadius=27.56mil|HoleSize=0mil|Usage=FLASHONLY|Rotation=270.000|XOffset=0mil|YOffset=0mil|HoleType=Round|Shape=RoundedRectangle|*
%AMROUNDEDRECTD43*
21,1,0.05512,0.09449,0,0,270.0*
21,1,0.00000,0.14961,0,0,270.0*
1,1,0.05512,-0.04724,0.00000*
1,1,0.05512,-0.04724,0.00000*
1,1,0.05512,0.04724,0.00000*
1,1,0.05512,0.04724,0.00000*
%
%ADD43ROUNDEDRECTD43*%
%ADD52C,0.05575*%
%ADD53R,0.05575X0.05575*%
%ADD54C,0.11811*%
%ADD55C,0.04331*%
%ADD56O,0.03937X0.07874*%
%ADD57O,0.03937X0.07874*%
%ADD58R,0.07284X0.07284*%
%ADD59C,0.07284*%
%ADD60C,0.05906*%
%ADD61C,0.04921*%
%ADD62C,0.03150*%
D13*
X180753Y96500D02*
X179914Y97021D01*
X178981Y97343D01*
X178000Y97453D01*
X177019Y97343D01*
X176086Y97021D01*
X175247Y96500D01*
X163935Y169577D02*
X164599Y170302D01*
X165096Y171151D01*
X165404Y172085D01*
X165508Y173063D01*
X163793Y184549D02*
X163793Y184549D01*
X165508Y180937D02*
X165396Y181950D01*
X165066Y182915D01*
X164533Y183785D01*
X163824Y184518D01*
X163796Y169454D02*
X163793Y169451D01*
X130300Y90775D02*
X130575Y90500D01*
X127500Y86786D02*
X128086Y86200D01*
X130000D01*
X127500Y86786D02*
Y103900D01*
X129600Y106000D01*
X130300Y90775D02*
Y102000D01*
X47484Y21484D02*
X52000Y16969D01*
X38653Y30315D02*
X47484Y21484D01*
X47500Y21500D01*
Y48000D02*
X50000Y50500D01*
X47500Y21500D02*
Y48000D01*
X57000Y10500D02*
Y17523D01*
X109100Y34000D02*
X137800Y62700D01*
X58575Y34000D02*
X109100D01*
X55500Y19023D02*
X57000Y17523D01*
X55500Y55000D02*
X95335Y94835D01*
X55500Y19023D02*
Y55000D01*
X62000Y16494D02*
X131247D01*
X20000Y30315D02*
X38653D01*
X52000Y15000D02*
Y16969D01*
X63295Y109961D02*
X100518D01*
X97482Y101543D02*
X102043D01*
X95335Y99396D02*
X97482Y101543D01*
X102043D02*
X110500Y110000D01*
X160000D01*
X95335Y94835D02*
Y99396D01*
X105758Y115200D02*
X128600D01*
X12386Y160870D02*
X63295Y109961D01*
X100518D02*
X105758Y115200D01*
X62000Y15000D02*
Y16494D01*
Y17530D01*
X184793Y96207D02*
X188000Y93000D01*
X146100Y96500D02*
X175247D01*
X139800Y90200D02*
X146100Y96500D01*
X180753D02*
X184500D01*
X184793Y96207D01*
X163500Y169158D02*
X163793Y169451D01*
X165508Y173063D02*
Y180937D01*
X163500Y184842D02*
X163793Y184549D01*
X160708Y189992D02*
X163207Y187493D01*
X163500Y184842D02*
Y187200D01*
X163793Y184549D02*
X163824Y184518D01*
X163796Y169454D02*
X163935Y169577D01*
X163207Y187493D02*
X163500Y187200D01*
Y130200D02*
Y169158D01*
X143800Y88400D02*
X145800Y86400D01*
X58000Y9500D02*
X74112D01*
X74547Y9935D01*
X131247Y16494D02*
X134994D01*
X110500Y42000D02*
Y63400D01*
X128200Y81100D01*
X137200Y95300D02*
X139800Y97900D01*
X137200Y74000D02*
Y95300D01*
Y74000D02*
X137800Y73400D01*
Y62700D02*
Y73400D01*
X57000Y10500D02*
X58000Y9500D01*
X134994Y16494D02*
X189500Y71000D01*
X157400Y121500D02*
X164000Y114900D01*
Y108000D02*
Y114900D01*
X162000Y106000D02*
X164000Y108000D01*
X129600Y106000D02*
X162000D01*
X130000Y86200D02*
X132200Y84000D01*
Y76500D02*
Y84000D01*
X122400Y66700D02*
X132200Y76500D01*
X184500Y103000D02*
X188000D01*
X180000Y107500D02*
X184500Y103000D01*
X171497Y107500D02*
X180000D01*
X167997Y104000D02*
X171497Y107500D01*
X132300Y104000D02*
X167997D01*
X130300Y102000D02*
X132300Y104000D01*
X133800Y66700D02*
X134300Y67200D01*
Y100000D01*
X136300Y102000D01*
X171000D01*
X172000Y103000D01*
X178000D01*
X152197Y189992D02*
X160708D01*
X115224Y149100D02*
X142900Y121424D01*
X86400Y149100D02*
X115224D01*
X59500Y176000D02*
X86400Y149100D01*
X12700Y176000D02*
X59500D01*
X8700Y172000D02*
X12700Y176000D01*
X8700Y156682D02*
Y172000D01*
Y156682D02*
X12386Y152996D01*
X178000Y113000D02*
X183500Y107500D01*
X190000D01*
X192500Y105000D01*
Y74000D02*
Y105000D01*
X189500Y71000D02*
X192500Y74000D01*
X145800Y57300D02*
Y86400D01*
X110500Y22000D02*
X145800Y57300D01*
X139800Y81400D02*
Y90200D01*
Y81400D02*
X141200Y80000D01*
D21*
X188000Y93000D02*
D03*
D39*
X152197Y189992D02*
D03*
D40*
Y164008D02*
D03*
D41*
X160858Y177000D02*
D03*
D42*
X177000D02*
D03*
D43*
X181331Y191567D02*
D03*
Y162433D02*
D03*
D52*
X20000Y59843D02*
D03*
Y50000D02*
D03*
Y40158D02*
D03*
D53*
Y30315D02*
D03*
D54*
X131000Y192000D02*
D03*
X189500Y7500D02*
D03*
X7000Y7000D02*
D03*
X11500Y191000D02*
D03*
D55*
X12386Y168744D02*
D03*
Y160870D02*
D03*
Y152996D02*
D03*
Y145122D02*
D03*
Y137248D02*
D03*
Y129374D02*
D03*
Y121500D02*
D03*
Y113626D02*
D03*
Y105752D02*
D03*
Y97878D02*
D03*
X99000D02*
D03*
Y105752D02*
D03*
Y113626D02*
D03*
Y121500D02*
D03*
Y129374D02*
D03*
Y137248D02*
D03*
Y145122D02*
D03*
Y152996D02*
D03*
Y160870D02*
D03*
Y168744D02*
D03*
D56*
X62000Y15000D02*
D03*
X52000D02*
D03*
D57*
X57000D02*
D03*
D58*
X189500Y51000D02*
D03*
D59*
Y71000D02*
D03*
D60*
X178000Y93000D02*
D03*
X188000Y103000D02*
D03*
X178000D02*
D03*
X188000Y113000D02*
D03*
X178000D02*
D03*
D61*
X110500Y22000D02*
D03*
Y42000D02*
D03*
D62*
X130575Y90500D02*
D03*
X50000Y50500D02*
D03*
X58575Y34000D02*
D03*
X143800Y88400D02*
D03*
X74547Y9935D02*
D03*
X128200Y81100D02*
D03*
X139800Y97900D02*
D03*
X131247Y16494D02*
D03*
X157400Y121500D02*
D03*
X122400Y66700D02*
D03*
X133800D02*
D03*
X160000Y110000D02*
D03*
X163500Y130200D02*
D03*
X142900Y121424D02*
D03*
X128600Y115200D02*
D03*
X141200Y80000D02*
D03*
M02*
