G04*
G04 #@! TF.GenerationSoftware,Altium Limited,Altium Designer,20.2.3 (150)*
G04*
G04 Layer_Color=8388736*
%FSLAX25Y25*%
%MOIN*%
G70*
G04*
G04 #@! TF.SameCoordinates,EDF52478-F8C3-47BA-AB45-1EA7DCE04F01*
G04*
G04*
G04 #@! TF.FilePolarity,Negative*
G04*
G01*
G75*
%ADD28R,0.06706X0.08674*%
%ADD29R,0.04343X0.03950*%
%ADD30R,0.07493X0.05131*%
%ADD31R,0.04343X0.03556*%
%ADD32R,0.06706X0.06706*%
%ADD33O,0.07296X0.02965*%
%ADD34O,0.02965X0.07296*%
%ADD35R,0.05328X0.06312*%
%ADD36R,0.04540X0.05918*%
%ADD37R,0.13595X0.05918*%
%ADD38C,0.06375*%
%ADD39R,0.06375X0.06375*%
%ADD40C,0.12611*%
%ADD41R,0.14173X0.06299*%
G04:AMPARAMS|DCode=42|XSize=62.99mil|YSize=141.73mil|CornerRadius=31.5mil|HoleSize=0mil|Usage=FLASHONLY|Rotation=270.000|XOffset=0mil|YOffset=0mil|HoleType=Round|Shape=RoundedRectangle|*
%AMROUNDEDRECTD42*
21,1,0.06299,0.07874,0,0,270.0*
21,1,0.00000,0.14173,0,0,270.0*
1,1,0.06299,-0.03937,0.00000*
1,1,0.06299,-0.03937,0.00000*
1,1,0.06299,0.03937,0.00000*
1,1,0.06299,0.03937,0.00000*
%
%ADD42ROUNDEDRECTD42*%
G04:AMPARAMS|DCode=43|XSize=141.73mil|YSize=62.99mil|CornerRadius=31.5mil|HoleSize=0mil|Usage=FLASHONLY|Rotation=270.000|XOffset=0mil|YOffset=0mil|HoleType=Round|Shape=RoundedRectangle|*
%AMROUNDEDRECTD43*
21,1,0.14173,0.00000,0,0,270.0*
21,1,0.07874,0.06299,0,0,270.0*
1,1,0.06299,0.00000,-0.03937*
1,1,0.06299,0.00000,0.03937*
1,1,0.06299,0.00000,0.03937*
1,1,0.06299,0.00000,-0.03937*
%
%ADD43ROUNDEDRECTD43*%
%ADD44C,0.09449*%
G04:AMPARAMS|DCode=45|XSize=55.12mil|YSize=149.61mil|CornerRadius=27.56mil|HoleSize=0mil|Usage=FLASHONLY|Rotation=270.000|XOffset=0mil|YOffset=0mil|HoleType=Round|Shape=RoundedRectangle|*
%AMROUNDEDRECTD45*
21,1,0.05512,0.09449,0,0,270.0*
21,1,0.00000,0.14961,0,0,270.0*
1,1,0.05512,-0.04724,0.00000*
1,1,0.05512,-0.04724,0.00000*
1,1,0.05512,0.04724,0.00000*
1,1,0.05512,0.04724,0.00000*
%
%ADD45ROUNDEDRECTD45*%
%ADD46C,0.05131*%
%ADD47O,0.04737X0.08674*%
%ADD48O,0.04737X0.08674*%
%ADD49C,0.06706*%
%ADD50C,0.05721*%
%ADD51C,0.03950*%
D28*
X184000Y34358D02*
D03*
Y66642D02*
D03*
D29*
X149500Y33756D02*
D03*
Y28244D02*
D03*
X161000Y33756D02*
D03*
Y28244D02*
D03*
D30*
X145500Y57815D02*
D03*
Y47185D02*
D03*
X162000Y19815D02*
D03*
Y9185D02*
D03*
X178000Y8870D02*
D03*
Y19500D02*
D03*
X160000Y57315D02*
D03*
Y46685D02*
D03*
X152500Y136815D02*
D03*
Y126185D02*
D03*
X117000Y136815D02*
D03*
Y126185D02*
D03*
X86000Y75815D02*
D03*
Y65185D02*
D03*
X69000Y75000D02*
D03*
Y64370D02*
D03*
D31*
X169000Y51547D02*
D03*
Y57453D02*
D03*
X137000Y20047D02*
D03*
Y25953D02*
D03*
X88000Y10547D02*
D03*
Y16453D02*
D03*
X52000Y36047D02*
D03*
Y41953D02*
D03*
Y64547D02*
D03*
Y70453D02*
D03*
X168000Y132547D02*
D03*
Y138453D02*
D03*
D32*
X185500Y130220D02*
D03*
Y144000D02*
D03*
X101000Y59110D02*
D03*
Y72890D02*
D03*
X188000Y93000D02*
D03*
D33*
X121465Y101024D02*
D03*
Y97874D02*
D03*
Y94724D02*
D03*
Y91575D02*
D03*
Y88425D02*
D03*
Y85276D02*
D03*
Y82126D02*
D03*
Y78976D02*
D03*
X154535D02*
D03*
Y82126D02*
D03*
Y85276D02*
D03*
Y88425D02*
D03*
Y91575D02*
D03*
Y94724D02*
D03*
Y97874D02*
D03*
Y101024D02*
D03*
D34*
X126976Y73465D02*
D03*
X130126D02*
D03*
X133276D02*
D03*
X136425D02*
D03*
X139575D02*
D03*
X142724D02*
D03*
X145874D02*
D03*
X149024D02*
D03*
Y106535D02*
D03*
X145874D02*
D03*
X142724D02*
D03*
X139575D02*
D03*
X136425D02*
D03*
X133276D02*
D03*
X130126D02*
D03*
X126976D02*
D03*
D35*
X138150Y127669D02*
D03*
Y136331D02*
D03*
X131850D02*
D03*
Y127669D02*
D03*
D36*
X66984Y29311D02*
D03*
X76000D02*
D03*
X85016D02*
D03*
D37*
X76000Y55689D02*
D03*
D38*
X20000Y59843D02*
D03*
Y50000D02*
D03*
Y40158D02*
D03*
D39*
Y30315D02*
D03*
D40*
X131000Y192000D02*
D03*
X189000Y8500D02*
D03*
X7000Y7000D02*
D03*
X11500Y191000D02*
D03*
D41*
X152197Y189992D02*
D03*
D42*
Y164008D02*
D03*
D43*
X160858Y177000D02*
D03*
D44*
X177000D02*
D03*
D45*
X181331Y191567D02*
D03*
Y162433D02*
D03*
D46*
X12386Y168744D02*
D03*
Y160870D02*
D03*
Y152996D02*
D03*
Y145122D02*
D03*
Y137248D02*
D03*
Y129374D02*
D03*
Y121500D02*
D03*
Y113626D02*
D03*
Y105752D02*
D03*
Y97878D02*
D03*
X99000D02*
D03*
Y105752D02*
D03*
Y113626D02*
D03*
Y121500D02*
D03*
Y129374D02*
D03*
Y137248D02*
D03*
Y145122D02*
D03*
Y152996D02*
D03*
Y160870D02*
D03*
Y168744D02*
D03*
D47*
X62000Y15000D02*
D03*
X52000D02*
D03*
D48*
X57000D02*
D03*
D49*
X178000Y93000D02*
D03*
X188000Y103000D02*
D03*
X178000D02*
D03*
X188000Y113000D02*
D03*
X178000D02*
D03*
D50*
X110500Y22000D02*
D03*
Y42000D02*
D03*
D51*
X162500Y41000D02*
D03*
X132400Y85276D02*
D03*
X130126Y116648D02*
D03*
X133700Y53700D02*
D03*
X149500Y37900D02*
D03*
X121926Y60500D02*
D03*
X60300Y72700D02*
D03*
X139300Y116024D02*
D03*
X138200Y33700D02*
D03*
X156100Y76000D02*
D03*
X146400Y100700D02*
D03*
X145500Y68200D02*
D03*
X149024Y86900D02*
D03*
M02*
