M48
;Layer_Color=9474304
;FILE_FORMAT=2:5
INCH,TZ
;TYPE=PLATED
T1F00S00C0.01575
T2F00S00C0.02795
T3F00S00C0.02953
T5F00S00C0.03543
T6F00S00C0.03583
T8F00S00C0.07874
;TYPE=NON_PLATED
T9F00S00C0.09449
%
T01
X60300Y72700
X121926Y60500
X133700Y53700
X138200Y33700
X149500Y37900
X145500Y68200
X156100Y76000
X149024Y86900
X146400Y100700
X139300Y116024
X130126Y116648
X132400Y85276
X162500Y41000
T02
X12386Y97878
Y105752
Y113626
Y121500
Y129374
Y137248
Y145122
Y152996
X99000
Y145122
Y137248
Y129374
Y121500
Y113626
Y105752
Y97878
Y160870
Y168744
X12386
Y160870
T03
X110500Y22000
Y42000
T05
X52000Y15000
X57000
X62000
X178000Y93000
X188000
Y103000
X178000
Y113000
X188000
T06
X20000Y30315
Y40158
Y50000
Y59843
T08
X7000Y7000
X189000Y8500
X131000Y192000
X11500Y191000
T09
X177000Y177000
M30
