G04*
G04 #@! TF.GenerationSoftware,Altium Limited,Altium Designer,20.2.3 (150)*
G04*
G04 Layer_Physical_Order=1*
G04 Layer_Color=255*
%FSLAX25Y25*%
%MOIN*%
G70*
G04*
G04 #@! TF.SameCoordinates,87A16382-0B38-46A0-9FAD-2025A4CCFA0B*
G04*
G04*
G04 #@! TF.FilePolarity,Positive*
G04*
G01*
G75*
%ADD13C,0.01000*%
%ADD18R,0.03543X0.03150*%
%ADD19R,0.06693X0.04331*%
%ADD20R,0.03543X0.02756*%
%ADD21R,0.05906X0.05906*%
%ADD22O,0.06496X0.02165*%
%ADD23O,0.02165X0.06496*%
%ADD24R,0.04528X0.05512*%
%ADD25R,0.03740X0.05118*%
%ADD26R,0.12795X0.05118*%
%ADD39R,0.14173X0.06299*%
G04:AMPARAMS|DCode=40|XSize=62.99mil|YSize=141.73mil|CornerRadius=31.5mil|HoleSize=0mil|Usage=FLASHONLY|Rotation=270.000|XOffset=0mil|YOffset=0mil|HoleType=Round|Shape=RoundedRectangle|*
%AMROUNDEDRECTD40*
21,1,0.06299,0.07874,0,0,270.0*
21,1,0.00000,0.14173,0,0,270.0*
1,1,0.06299,-0.03937,0.00000*
1,1,0.06299,-0.03937,0.00000*
1,1,0.06299,0.03937,0.00000*
1,1,0.06299,0.03937,0.00000*
%
%ADD40ROUNDEDRECTD40*%
G04:AMPARAMS|DCode=41|XSize=141.73mil|YSize=62.99mil|CornerRadius=31.5mil|HoleSize=0mil|Usage=FLASHONLY|Rotation=270.000|XOffset=0mil|YOffset=0mil|HoleType=Round|Shape=RoundedRectangle|*
%AMROUNDEDRECTD41*
21,1,0.14173,0.00000,0,0,270.0*
21,1,0.07874,0.06299,0,0,270.0*
1,1,0.06299,0.00000,-0.03937*
1,1,0.06299,0.00000,0.03937*
1,1,0.06299,0.00000,0.03937*
1,1,0.06299,0.00000,-0.03937*
%
%ADD41ROUNDEDRECTD41*%
%ADD42C,0.09449*%
G04:AMPARAMS|DCode=43|XSize=55.12mil|YSize=149.61mil|CornerRadius=27.56mil|HoleSize=0mil|Usage=FLASHONLY|Rotation=270.000|XOffset=0mil|YOffset=0mil|HoleType=Round|Shape=RoundedRectangle|*
%AMROUNDEDRECTD43*
21,1,0.05512,0.09449,0,0,270.0*
21,1,0.00000,0.14961,0,0,270.0*
1,1,0.05512,-0.04724,0.00000*
1,1,0.05512,-0.04724,0.00000*
1,1,0.05512,0.04724,0.00000*
1,1,0.05512,0.04724,0.00000*
%
%ADD43ROUNDEDRECTD43*%
%ADD52C,0.05575*%
%ADD53R,0.05575X0.05575*%
%ADD54C,0.11811*%
%ADD55C,0.04331*%
%ADD56O,0.03937X0.07874*%
%ADD57O,0.03937X0.07874*%
%ADD58R,0.07284X0.07284*%
%ADD59C,0.07284*%
%ADD60C,0.05906*%
%ADD61C,0.04921*%
%ADD62C,0.03150*%
D13*
X133205Y171000D02*
X152197Y189992D01*
X108000Y127400D02*
Y170414D01*
X108586Y171000D01*
X133205D01*
X136800Y84000D02*
X146176D01*
X130575Y90225D02*
X136800Y84000D01*
X130575Y90225D02*
Y90500D01*
X50000Y43953D02*
X50728Y43224D01*
X50000Y43953D02*
Y56300D01*
X55300Y61600D01*
X50728Y42831D02*
X51606Y41953D01*
X52000D01*
X50728Y42831D02*
Y43224D01*
X58246Y34000D02*
X58575D01*
X62000Y16969D02*
Y27311D01*
X15000Y38500D02*
X18898Y34602D01*
X44366D01*
X62000Y15000D02*
Y16969D01*
X44366Y34602D02*
X62000Y16969D01*
X15000Y38500D02*
Y51063D01*
X19492Y59334D02*
X20000Y59843D01*
X19492Y55555D02*
Y59334D01*
X15000Y51063D02*
X19492Y55555D01*
X47496Y40158D02*
X51606Y36047D01*
X20000Y40158D02*
X47496D01*
X51606Y36047D02*
X52000D01*
X56199D01*
X52000Y10500D02*
Y15000D01*
Y10500D02*
X56000Y6500D01*
X62947D01*
X56199Y36047D02*
X58246Y34000D01*
X16500Y63343D02*
X20000Y59843D01*
X16500Y63343D02*
Y93764D01*
X172508Y16993D02*
X182208Y26693D01*
X166015Y10500D02*
X172508Y16993D01*
X161000Y28244D02*
X161197D01*
X172448Y16993D01*
X172508D01*
X183285Y37315D02*
X187319D01*
X172500Y26185D02*
X177347D01*
X185653Y34492D01*
Y35650D01*
X187319Y37315D01*
X188500D01*
X149697Y28244D02*
X161000D01*
X149500D02*
X149697D01*
X158819Y46685D02*
X160000D01*
X149697Y28244D02*
X157153Y35701D01*
Y45020D01*
X158819Y46685D01*
X154100Y38300D02*
Y50400D01*
X149500Y33700D02*
X154100Y38300D01*
X149500Y32378D02*
Y33700D01*
X152500Y136815D02*
X160858Y145173D01*
X184000Y145500D02*
X185500Y144000D01*
X160858Y145500D02*
X184000D01*
X146282Y91575D02*
X154535D01*
X144819Y93037D02*
X146282Y91575D01*
X136963Y93037D02*
X144819D01*
X135276Y94724D02*
X136963Y93037D01*
X143800Y88400D02*
X145976D01*
X121465Y94724D02*
X135276D01*
X161000Y33100D02*
X176600D01*
X120838Y25953D02*
X137000D01*
X116885Y22000D02*
X120838Y25953D01*
X110500Y22000D02*
X116885D01*
X70383Y13935D02*
X85089D01*
X62947Y6500D02*
X70383Y13935D01*
X74659Y10047D02*
X88000D01*
X74547Y9935D02*
X74659Y10047D01*
X85089Y13935D02*
X87606Y16453D01*
X88000D01*
X85016Y28622D02*
Y36000D01*
Y28622D02*
X86386Y27252D01*
X88000Y16453D02*
Y26327D01*
X86386Y27252D02*
X87075D01*
X88000Y26327D01*
X125500Y85776D02*
X126300Y86576D01*
X125000Y85276D02*
X125500Y85776D01*
X138150Y135099D02*
Y136331D01*
X135050Y132000D02*
X138150Y135099D01*
X131850Y128800D02*
X135050Y132000D01*
X143700Y23747D02*
Y47185D01*
X120200Y132000D02*
X135050D01*
X118200Y134000D02*
Y136815D01*
X34600Y146530D02*
X86000Y95130D01*
X12386Y168744D02*
X34600Y146530D01*
X169200Y60627D02*
Y80925D01*
X116200Y115200D02*
Y126185D01*
X112100D02*
X116200D01*
X122400Y66700D02*
Y78976D01*
X196642Y104358D02*
X196656Y93344D01*
X196700Y58200D01*
X196656Y93344D02*
X196700Y93300D01*
X192000Y98000D02*
X196656Y93344D01*
X128200Y81100D02*
Y83076D01*
X125500Y85776D02*
X128200Y83076D01*
X121465Y85276D02*
X125500Y85776D01*
X106500Y38000D02*
X110500Y42000D01*
X106500Y18000D02*
Y38000D01*
Y18000D02*
X114000Y10500D01*
X166015D01*
X182208Y26693D02*
X188500Y26685D01*
X178000Y113000D02*
Y136500D01*
X185500Y144000D01*
X160858Y145173D02*
Y177000D01*
X12386Y97878D02*
X16500Y93764D01*
X64000Y29311D02*
X66984D01*
X62000Y27311D02*
X64000Y29311D01*
X66984D02*
Y58584D01*
X69000Y60600D01*
Y64370D01*
X76000Y29311D02*
Y36600D01*
X85200Y45800D01*
X96600D01*
X107453Y56653D01*
Y79343D01*
X90728D02*
X107453D01*
X87200Y75815D02*
X90728Y79343D01*
X86000Y75815D02*
X87200D01*
X40000Y64547D02*
X52000D01*
X34600Y69947D02*
X40000Y64547D01*
X34600Y69947D02*
Y146530D01*
X154535Y82126D02*
X158074D01*
X160200Y80000D01*
Y76000D02*
Y80000D01*
X146300Y62100D02*
X160200Y76000D01*
X141700Y62100D02*
X146300D01*
X140600Y61000D02*
X141700Y62100D01*
X140600Y54700D02*
Y61000D01*
Y54700D02*
X142000Y53300D01*
X150886D01*
X155153Y57567D01*
Y60981D01*
X164847D01*
Y53600D02*
Y60981D01*
X157300Y53600D02*
X164847D01*
X154100Y50400D02*
X157300Y53600D01*
X168385Y36815D02*
X172500D01*
X167200Y38000D02*
X168385Y36815D01*
X167200Y38000D02*
Y48000D01*
X164800Y50400D02*
X167200Y48000D01*
X154100Y50400D02*
X164800D01*
X52000Y70453D02*
X89657D01*
X96547Y77343D01*
X105453D01*
Y68400D02*
Y77343D01*
X101000Y63947D02*
X105453Y68400D01*
X101000Y59110D02*
Y63947D01*
X189500Y51000D02*
X196700Y58200D01*
Y93300D01*
X175300Y98000D02*
X192000D01*
X171500Y101800D02*
X175300Y98000D01*
X171500Y101800D02*
Y135500D01*
X162000D02*
X171500D01*
X159500Y133000D02*
X162000Y135500D01*
X159500Y127696D02*
Y133000D01*
Y127696D02*
X162000Y125196D01*
Y119796D02*
Y125196D01*
X156204Y114000D02*
X162000Y119796D01*
X140425Y114000D02*
X156204D01*
X136425Y110000D02*
X140425Y114000D01*
X136425Y106535D02*
Y110000D01*
X188000Y113000D02*
X196642Y104358D01*
X139826Y97874D02*
X154535D01*
X139800Y97900D02*
X139826Y97874D01*
X131247Y16494D02*
X134800Y20047D01*
X137000D01*
X55300Y61600D02*
Y67500D01*
X48700D02*
X55300D01*
X48700D02*
Y74000D01*
X49700Y75000D01*
X69000D01*
X86000Y75815D02*
Y95130D01*
Y65185D02*
X93295D01*
X101000Y72890D01*
X108000Y127400D02*
X110500Y124900D01*
Y42000D02*
Y124900D01*
X152500Y126185D02*
X156215D01*
X157400Y125000D01*
Y121500D02*
Y125000D01*
X121465Y78976D02*
X122400D01*
X146176Y84000D02*
X151200Y78976D01*
X154535D01*
X145874Y69274D02*
Y73465D01*
X143300Y66700D02*
X145874Y69274D01*
X133800Y66700D02*
X143300D01*
X160000Y103024D02*
Y110000D01*
X158000Y101024D02*
X160000Y103024D01*
X154535Y101024D02*
X158000D01*
X116200Y126185D02*
X117000D01*
X114000Y113000D02*
X116200Y115200D01*
X114000Y85726D02*
Y113000D01*
Y85726D02*
X117600Y82126D01*
X121465D01*
X131850Y136331D02*
Y140000D01*
X127850Y144000D02*
X131850Y140000D01*
X116100Y144000D02*
X127850D01*
X112100Y140000D02*
X116100Y144000D01*
X112100Y126185D02*
Y140000D01*
X163500Y130200D02*
X165847Y132547D01*
X168000D01*
X133276Y106535D02*
Y111800D01*
X142900Y121424D01*
X128600Y115200D02*
X130126Y113674D01*
Y106535D02*
Y113674D01*
X168000Y138453D02*
X172047D01*
X173500Y137000D01*
Y111000D02*
Y137000D01*
Y111000D02*
X176000Y108500D01*
X180000D01*
X182500Y111000D01*
Y118900D01*
X185500Y121900D01*
Y130220D01*
X168000Y132547D02*
X169500Y131047D01*
Y94713D02*
Y131047D01*
Y94713D02*
X176000Y88213D01*
X180187D01*
X194642Y73758D01*
Y68242D02*
Y73758D01*
X183853Y57453D02*
X194642Y68242D01*
X174500Y57453D02*
X183853D01*
X171200Y49400D02*
X183285Y37315D01*
X171200Y49400D02*
Y66200D01*
X176000Y71000D01*
X189500D01*
X149100Y85276D02*
X154535D01*
X145976Y88400D02*
X149100Y85276D01*
X141200Y80000D02*
X147024D01*
X149024Y78000D01*
Y73465D02*
Y78000D01*
X179500Y36000D02*
Y38271D01*
X169200Y48571D02*
X179500Y38271D01*
X161700Y88425D02*
X169200Y80925D01*
X154535Y88425D02*
X161700D01*
X157730Y57315D02*
X160000D01*
X147600Y47185D02*
X157730Y57315D01*
X145500Y47185D02*
X147600D01*
X176600Y33100D02*
X179500Y36000D01*
X169200Y48571D02*
Y60627D01*
X166847Y62981D02*
X169200Y60627D01*
X153153Y62981D02*
X166847D01*
X153153Y61309D02*
Y62981D01*
X149660Y57815D02*
X153153Y61309D01*
X145500Y57815D02*
X149660D01*
X131850Y124800D02*
Y127669D01*
X116700Y109650D02*
X131850Y124800D01*
X116700Y96024D02*
Y109650D01*
Y96024D02*
X118000Y94724D01*
X121465D01*
Y91575D02*
X125000D01*
X126300Y90275D01*
Y86576D02*
Y90275D01*
X121465Y85276D02*
X125000D01*
X116000Y92724D02*
X118000Y94724D01*
X116000Y90425D02*
Y92724D01*
Y90425D02*
X118000Y88425D01*
X121465D01*
X91016Y42000D02*
X110500D01*
X85016Y36000D02*
X91016Y42000D01*
X77815Y65185D02*
X86000D01*
X77000Y64370D02*
X77815Y65185D01*
X69000Y64370D02*
X77000D01*
X143700Y47185D02*
X145500D01*
X140000Y20047D02*
X143700Y23747D01*
X137000Y20047D02*
X140000D01*
X117000Y136815D02*
X118200D01*
Y134000D02*
X120200Y132000D01*
X131850Y127669D02*
Y128800D01*
X145484Y136815D02*
X152500D01*
X145000Y136331D02*
X145484Y136815D01*
X138150Y136331D02*
X145000D01*
X145984Y126185D02*
X152500D01*
X144500Y127669D02*
X145984Y126185D01*
X138150Y127669D02*
X144500D01*
X182247Y51000D02*
X189500D01*
X181700Y51547D02*
X182247Y51000D01*
X174500Y51547D02*
X181700D01*
D18*
X149500Y33756D02*
D03*
Y28244D02*
D03*
X161000Y33756D02*
D03*
Y28244D02*
D03*
D19*
X145500Y57815D02*
D03*
Y47185D02*
D03*
X172500Y36815D02*
D03*
Y26185D02*
D03*
X188500Y37315D02*
D03*
Y26685D02*
D03*
X160000Y57315D02*
D03*
Y46685D02*
D03*
X152500Y136815D02*
D03*
Y126185D02*
D03*
X117000Y136815D02*
D03*
Y126185D02*
D03*
X86000Y75815D02*
D03*
Y65185D02*
D03*
X69000Y75000D02*
D03*
Y64370D02*
D03*
D20*
X174500Y51547D02*
D03*
Y57453D02*
D03*
X137000Y20047D02*
D03*
Y25953D02*
D03*
X88000Y10547D02*
D03*
Y16453D02*
D03*
X52000Y36047D02*
D03*
Y41953D02*
D03*
Y64547D02*
D03*
Y70453D02*
D03*
X168000Y132547D02*
D03*
Y138453D02*
D03*
D21*
X185500Y130220D02*
D03*
Y144000D02*
D03*
X101000Y59110D02*
D03*
Y72890D02*
D03*
X188000Y93000D02*
D03*
D22*
X121465Y101024D02*
D03*
Y97874D02*
D03*
Y94724D02*
D03*
Y91575D02*
D03*
Y88425D02*
D03*
Y85276D02*
D03*
Y82126D02*
D03*
Y78976D02*
D03*
X154535D02*
D03*
Y82126D02*
D03*
Y85276D02*
D03*
Y88425D02*
D03*
Y91575D02*
D03*
Y94724D02*
D03*
Y97874D02*
D03*
Y101024D02*
D03*
D23*
X126976Y73465D02*
D03*
X130126D02*
D03*
X133276D02*
D03*
X136425D02*
D03*
X139575D02*
D03*
X142724D02*
D03*
X145874D02*
D03*
X149024D02*
D03*
Y106535D02*
D03*
X145874D02*
D03*
X142724D02*
D03*
X139575D02*
D03*
X136425D02*
D03*
X133276D02*
D03*
X130126D02*
D03*
X126976D02*
D03*
D24*
X138150Y127669D02*
D03*
Y136331D02*
D03*
X131850D02*
D03*
Y127669D02*
D03*
D25*
X66984Y29311D02*
D03*
X76000D02*
D03*
X85016D02*
D03*
D26*
X76000Y55689D02*
D03*
D39*
X152197Y189992D02*
D03*
D40*
Y164008D02*
D03*
D41*
X160858Y177000D02*
D03*
D42*
X177000D02*
D03*
D43*
X181331Y191567D02*
D03*
Y162433D02*
D03*
D52*
X20000Y59843D02*
D03*
Y50000D02*
D03*
Y40158D02*
D03*
D53*
Y30315D02*
D03*
D54*
X131000Y192000D02*
D03*
X189500Y7500D02*
D03*
X7000Y7000D02*
D03*
X11500Y191000D02*
D03*
D55*
X12386Y168744D02*
D03*
Y160870D02*
D03*
Y152996D02*
D03*
Y145122D02*
D03*
Y137248D02*
D03*
Y129374D02*
D03*
Y121500D02*
D03*
Y113626D02*
D03*
Y105752D02*
D03*
Y97878D02*
D03*
X99000D02*
D03*
Y105752D02*
D03*
Y113626D02*
D03*
Y121500D02*
D03*
Y129374D02*
D03*
Y137248D02*
D03*
Y145122D02*
D03*
Y152996D02*
D03*
Y160870D02*
D03*
Y168744D02*
D03*
D56*
X62000Y15000D02*
D03*
X52000D02*
D03*
D57*
X57000D02*
D03*
D58*
X189500Y51000D02*
D03*
D59*
Y71000D02*
D03*
D60*
X178000Y93000D02*
D03*
X188000Y103000D02*
D03*
X178000D02*
D03*
X188000Y113000D02*
D03*
X178000D02*
D03*
D61*
X110500Y22000D02*
D03*
Y42000D02*
D03*
D62*
X130575Y90500D02*
D03*
X50000Y50500D02*
D03*
X58575Y34000D02*
D03*
X143800Y88400D02*
D03*
X74547Y9935D02*
D03*
X128200Y81100D02*
D03*
X139800Y97900D02*
D03*
X131247Y16494D02*
D03*
X157400Y121500D02*
D03*
X122400Y66700D02*
D03*
X133800D02*
D03*
X160000Y110000D02*
D03*
X163500Y130200D02*
D03*
X142900Y121424D02*
D03*
X128600Y115200D02*
D03*
X141200Y80000D02*
D03*
M02*
