G04*
G04 #@! TF.GenerationSoftware,Altium Limited,Altium Designer,20.2.3 (150)*
G04*
G04 Layer_Color=2752767*
%FSLAX25Y25*%
%MOIN*%
G70*
G04*
G04 #@! TF.SameCoordinates,87A16382-0B38-46A0-9FAD-2025A4CCFA0B*
G04*
G04*
G04 #@! TF.FilePolarity,Positive*
G04*
G01*
G75*
%ADD64C,0.00200*%
%ADD65C,0.00267*%
%ADD66C,0.00133*%
D64*
X19200Y59043D02*
Y60643D01*
X20800D01*
Y59043D01*
X19200D01*
Y49200D02*
Y50800D01*
X20800D01*
Y49200D01*
X19200D01*
Y39358D02*
Y40958D01*
X20800D01*
Y39358D01*
X19200D01*
Y29515D02*
Y31115D01*
X20800D01*
Y29515D01*
X19200D01*
X152197Y189192D02*
X151397Y190792D01*
X152997D01*
X152197Y189192D01*
Y163208D02*
X151397Y164808D01*
X152997D01*
X152197Y163208D01*
X160858Y176200D02*
X161258Y176600D01*
X161658D01*
X161258Y177000D01*
X161658Y177400D01*
X161258D01*
X160858Y177800D01*
X160458Y177400D01*
X160058D01*
X160458Y177000D01*
X160058Y176600D01*
X160458D01*
X160858Y176200D01*
X176200D02*
X176600Y177000D01*
X176200Y177800D01*
X177000Y177400D01*
X177800Y177800D01*
X177400Y177000D01*
X177800Y176200D01*
X177000Y176600D01*
X176200Y176200D01*
X180931Y191167D02*
Y190767D01*
X181731D01*
Y191167D01*
X182131D01*
Y191967D01*
X181731D01*
Y192367D01*
X180931D01*
Y191967D01*
X180531D01*
Y191167D01*
X180931D01*
Y162033D02*
Y161633D01*
X181731D01*
Y162033D01*
X182131D01*
Y162833D01*
X181731D01*
Y163233D01*
X180931D01*
Y162833D01*
X180531D01*
Y162033D01*
X180931D01*
X11586Y167944D02*
X11986D01*
X12386Y168344D01*
X12786Y167944D01*
X13186D01*
Y168344D01*
X12786Y168744D01*
X13186Y169144D01*
Y169544D01*
X12786D01*
X12386Y169144D01*
X11986Y169544D01*
X11586D01*
Y169144D01*
X11986Y168744D01*
X11586Y168344D01*
Y167944D01*
Y160070D02*
X11986D01*
X12386Y160470D01*
X12786Y160070D01*
X13186D01*
Y160470D01*
X12786Y160870D01*
X13186Y161270D01*
Y161670D01*
X12786D01*
X12386Y161270D01*
X11986Y161670D01*
X11586D01*
Y161270D01*
X11986Y160870D01*
X11586Y160470D01*
Y160070D01*
Y152196D02*
X11986D01*
X12386Y152596D01*
X12786Y152196D01*
X13186D01*
Y152596D01*
X12786Y152996D01*
X13186Y153396D01*
Y153796D01*
X12786D01*
X12386Y153396D01*
X11986Y153796D01*
X11586D01*
Y153396D01*
X11986Y152996D01*
X11586Y152596D01*
Y152196D01*
Y144322D02*
X11986D01*
X12386Y144722D01*
X12786Y144322D01*
X13186D01*
Y144722D01*
X12786Y145122D01*
X13186Y145522D01*
Y145922D01*
X12786D01*
X12386Y145522D01*
X11986Y145922D01*
X11586D01*
Y145522D01*
X11986Y145122D01*
X11586Y144722D01*
Y144322D01*
Y136448D02*
X11986D01*
X12386Y136848D01*
X12786Y136448D01*
X13186D01*
Y136848D01*
X12786Y137248D01*
X13186Y137648D01*
Y138048D01*
X12786D01*
X12386Y137648D01*
X11986Y138048D01*
X11586D01*
Y137648D01*
X11986Y137248D01*
X11586Y136848D01*
Y136448D01*
Y128574D02*
X11986D01*
X12386Y128974D01*
X12786Y128574D01*
X13186D01*
Y128974D01*
X12786Y129374D01*
X13186Y129774D01*
Y130174D01*
X12786D01*
X12386Y129774D01*
X11986Y130174D01*
X11586D01*
Y129774D01*
X11986Y129374D01*
X11586Y128974D01*
Y128574D01*
Y120700D02*
X11986D01*
X12386Y121100D01*
X12786Y120700D01*
X13186D01*
Y121100D01*
X12786Y121500D01*
X13186Y121900D01*
Y122300D01*
X12786D01*
X12386Y121900D01*
X11986Y122300D01*
X11586D01*
Y121900D01*
X11986Y121500D01*
X11586Y121100D01*
Y120700D01*
Y112826D02*
X11986D01*
X12386Y113226D01*
X12786Y112826D01*
X13186D01*
Y113226D01*
X12786Y113626D01*
X13186Y114026D01*
Y114426D01*
X12786D01*
X12386Y114026D01*
X11986Y114426D01*
X11586D01*
Y114026D01*
X11986Y113626D01*
X11586Y113226D01*
Y112826D01*
Y104952D02*
X11986D01*
X12386Y105352D01*
X12786Y104952D01*
X13186D01*
Y105352D01*
X12786Y105752D01*
X13186Y106152D01*
Y106552D01*
X12786D01*
X12386Y106152D01*
X11986Y106552D01*
X11586D01*
Y106152D01*
X11986Y105752D01*
X11586Y105352D01*
Y104952D01*
Y97078D02*
X11986D01*
X12386Y97478D01*
X12786Y97078D01*
X13186D01*
Y97478D01*
X12786Y97878D01*
X13186Y98278D01*
Y98678D01*
X12786D01*
X12386Y98278D01*
X11986Y98678D01*
X11586D01*
Y98278D01*
X11986Y97878D01*
X11586Y97478D01*
Y97078D01*
X98200D02*
X98600D01*
X99000Y97478D01*
X99400Y97078D01*
X99800D01*
Y97478D01*
X99400Y97878D01*
X99800Y98278D01*
Y98678D01*
X99400D01*
X99000Y98278D01*
X98600Y98678D01*
X98200D01*
Y98278D01*
X98600Y97878D01*
X98200Y97478D01*
Y97078D01*
Y104952D02*
X98600D01*
X99000Y105352D01*
X99400Y104952D01*
X99800D01*
Y105352D01*
X99400Y105752D01*
X99800Y106152D01*
Y106552D01*
X99400D01*
X99000Y106152D01*
X98600Y106552D01*
X98200D01*
Y106152D01*
X98600Y105752D01*
X98200Y105352D01*
Y104952D01*
Y112826D02*
X98600D01*
X99000Y113226D01*
X99400Y112826D01*
X99800D01*
Y113226D01*
X99400Y113626D01*
X99800Y114026D01*
Y114426D01*
X99400D01*
X99000Y114026D01*
X98600Y114426D01*
X98200D01*
Y114026D01*
X98600Y113626D01*
X98200Y113226D01*
Y112826D01*
Y120700D02*
X98600D01*
X99000Y121100D01*
X99400Y120700D01*
X99800D01*
Y121100D01*
X99400Y121500D01*
X99800Y121900D01*
Y122300D01*
X99400D01*
X99000Y121900D01*
X98600Y122300D01*
X98200D01*
Y121900D01*
X98600Y121500D01*
X98200Y121100D01*
Y120700D01*
Y128574D02*
X98600D01*
X99000Y128974D01*
X99400Y128574D01*
X99800D01*
Y128974D01*
X99400Y129374D01*
X99800Y129774D01*
Y130174D01*
X99400D01*
X99000Y129774D01*
X98600Y130174D01*
X98200D01*
Y129774D01*
X98600Y129374D01*
X98200Y128974D01*
Y128574D01*
Y136448D02*
X98600D01*
X99000Y136848D01*
X99400Y136448D01*
X99800D01*
Y136848D01*
X99400Y137248D01*
X99800Y137648D01*
Y138048D01*
X99400D01*
X99000Y137648D01*
X98600Y138048D01*
X98200D01*
Y137648D01*
X98600Y137248D01*
X98200Y136848D01*
Y136448D01*
Y144322D02*
X98600D01*
X99000Y144722D01*
X99400Y144322D01*
X99800D01*
Y144722D01*
X99400Y145122D01*
X99800Y145522D01*
Y145922D01*
X99400D01*
X99000Y145522D01*
X98600Y145922D01*
X98200D01*
Y145522D01*
X98600Y145122D01*
X98200Y144722D01*
Y144322D01*
Y152196D02*
X98600D01*
X99000Y152596D01*
X99400Y152196D01*
X99800D01*
Y152596D01*
X99400Y152996D01*
X99800Y153396D01*
Y153796D01*
X99400D01*
X99000Y153396D01*
X98600Y153796D01*
X98200D01*
Y153396D01*
X98600Y152996D01*
X98200Y152596D01*
Y152196D01*
Y160070D02*
X98600D01*
X99000Y160470D01*
X99400Y160070D01*
X99800D01*
Y160470D01*
X99400Y160870D01*
X99800Y161270D01*
Y161670D01*
X99400D01*
X99000Y161270D01*
X98600Y161670D01*
X98200D01*
Y161270D01*
X98600Y160870D01*
X98200Y160470D01*
Y160070D01*
Y167944D02*
X98600D01*
X99000Y168344D01*
X99400Y167944D01*
X99800D01*
Y168344D01*
X99400Y168744D01*
X99800Y169144D01*
Y169544D01*
X99400D01*
X99000Y169144D01*
X98600Y169544D01*
X98200D01*
Y169144D01*
X98600Y168744D01*
X98200Y168344D01*
Y167944D01*
X61200Y15000D02*
X62000Y15800D01*
X62800Y15000D01*
X62000Y14200D01*
X61200Y15000D01*
X56200D02*
X57000Y15800D01*
X57800Y15000D01*
X57000Y14200D01*
X56200Y15000D01*
X51200D02*
X52000Y15800D01*
X52800Y15000D01*
X52000Y14200D01*
X51200Y15000D01*
X188700Y50200D02*
Y51800D01*
X190300D01*
Y50200D01*
X188700D01*
X189100Y50600D02*
Y51400D01*
X189900D01*
Y50600D01*
X189100D01*
X188700Y70200D02*
Y71800D01*
X190300D01*
Y70200D01*
X188700D01*
X189100Y70600D02*
Y71400D01*
X189900D01*
Y70600D01*
X189100D01*
X187200Y93000D02*
X188000Y93800D01*
X188800Y93000D01*
X188000Y92200D01*
X187200Y93000D01*
X177200D02*
X178000Y93800D01*
X178800Y93000D01*
X178000Y92200D01*
X177200Y93000D01*
X187200Y103000D02*
X188000Y103800D01*
X188800Y103000D01*
X188000Y102200D01*
X187200Y103000D01*
X177200D02*
X178000Y103800D01*
X178800Y103000D01*
X178000Y102200D01*
X177200Y103000D01*
X187200Y113000D02*
X188000Y113800D01*
X188800Y113000D01*
X188000Y112200D01*
X187200Y113000D01*
X177200D02*
X178000Y113800D01*
X178800Y113000D01*
X178000Y112200D01*
X177200Y113000D01*
X130575Y89700D02*
X129775Y91300D01*
X131375D01*
X130575Y89700D01*
Y90100D02*
X130175Y90900D01*
X130975D01*
X130575Y90100D01*
X50000Y49700D02*
X49200Y51300D01*
X50800D01*
X50000Y49700D01*
Y50100D02*
X49600Y50900D01*
X50400D01*
X50000Y50100D01*
X58575Y33200D02*
X57775Y34800D01*
X59375D01*
X58575Y33200D01*
Y33600D02*
X58175Y34400D01*
X58975D01*
X58575Y33600D01*
X143800Y87600D02*
X143000Y89200D01*
X144600D01*
X143800Y87600D01*
Y88000D02*
X143400Y88800D01*
X144200D01*
X143800Y88000D01*
X74547Y9135D02*
X73747Y10735D01*
X75347D01*
X74547Y9135D01*
Y9535D02*
X74147Y10335D01*
X74947D01*
X74547Y9535D01*
X128200Y80300D02*
X127400Y81900D01*
X129000D01*
X128200Y80300D01*
Y80700D02*
X127800Y81500D01*
X128600D01*
X128200Y80700D01*
X139800Y97100D02*
X139000Y98700D01*
X140600D01*
X139800Y97100D01*
Y97500D02*
X139400Y98300D01*
X140200D01*
X139800Y97500D01*
X131247Y15694D02*
X130447Y17294D01*
X132047D01*
X131247Y15694D01*
Y16094D02*
X130847Y16894D01*
X131647D01*
X131247Y16094D01*
X157400Y120700D02*
X156600Y122300D01*
X158200D01*
X157400Y120700D01*
Y121100D02*
X157000Y121900D01*
X157800D01*
X157400Y121100D01*
X122400Y65900D02*
X121600Y67500D01*
X123200D01*
X122400Y65900D01*
Y66300D02*
X122000Y67100D01*
X122800D01*
X122400Y66300D01*
X133800Y65900D02*
X133000Y67500D01*
X134600D01*
X133800Y65900D01*
Y66300D02*
X133400Y67100D01*
X134200D01*
X133800Y66300D01*
X160000Y109200D02*
X159200Y110800D01*
X160800D01*
X160000Y109200D01*
Y109600D02*
X159600Y110400D01*
X160400D01*
X160000Y109600D01*
X163500Y129400D02*
X162700Y131000D01*
X164300D01*
X163500Y129400D01*
Y129800D02*
X163100Y130600D01*
X163900D01*
X163500Y129800D01*
X142900Y120624D02*
X142100Y122224D01*
X143700D01*
X142900Y120624D01*
Y121024D02*
X142500Y121824D01*
X143300D01*
X142900Y121024D01*
X128600Y114400D02*
X127800Y116000D01*
X129400D01*
X128600Y114400D01*
Y114800D02*
X128200Y115600D01*
X129000D01*
X128600Y114800D01*
X141200Y79200D02*
X140400Y80800D01*
X142000D01*
X141200Y79200D01*
Y79600D02*
X140800Y80400D01*
X141600D01*
X141200Y79600D01*
D65*
X131800Y192000D02*
X131247Y192761D01*
X130353Y192470D01*
Y191530D01*
X131247Y191239D01*
X131800Y192000D01*
X190300Y7500D02*
X189747Y8261D01*
X188853Y7970D01*
Y7030D01*
X189747Y6739D01*
X190300Y7500D01*
X7800Y7000D02*
X7247Y7761D01*
X6353Y7470D01*
Y6530D01*
X7247Y6239D01*
X7800Y7000D01*
X12300Y191000D02*
X11747Y191761D01*
X10853Y191470D01*
Y190530D01*
X11747Y190239D01*
X12300Y191000D01*
X111300Y22000D02*
X110747Y22761D01*
X109853Y22470D01*
Y21530D01*
X110747Y21239D01*
X111300Y22000D01*
Y42000D02*
X110747Y42761D01*
X109853Y42470D01*
Y41530D01*
X110747Y41239D01*
X111300Y42000D01*
D66*
X110900Y22000D02*
X110300Y22346D01*
Y21654D01*
X110900Y22000D01*
Y42000D02*
X110300Y42346D01*
Y41654D01*
X110900Y42000D01*
M02*
