G04*
G04 #@! TF.GenerationSoftware,Altium Limited,Altium Designer,20.2.3 (150)*
G04*
G04 Layer_Color=128*
%FSLAX25Y25*%
%MOIN*%
G70*
G04*
G04 #@! TF.SameCoordinates,87A16382-0B38-46A0-9FAD-2025A4CCFA0B*
G04*
G04*
G04 #@! TF.FilePolarity,Positive*
G04*
G01*
G75*
%ADD64C,0.00200*%
D64*
X18209Y59843D02*
X21791D01*
X20000Y58051D02*
Y61634D01*
X18209Y50000D02*
X21791D01*
X20000Y48209D02*
Y51791D01*
X18209Y40158D02*
X21791D01*
X20000Y38366D02*
Y41949D01*
X18209Y30315D02*
X21791D01*
X20000Y28524D02*
Y32106D01*
X127063Y192000D02*
X134937D01*
X131000Y188063D02*
Y195937D01*
X185563Y7500D02*
X193437D01*
X189500Y3563D02*
Y11437D01*
X3063Y7000D02*
X10937D01*
X7000Y3063D02*
Y10937D01*
X7563Y191000D02*
X15437D01*
X11500Y187063D02*
Y194937D01*
X146291Y189992D02*
X158102D01*
X152197Y184087D02*
Y195898D01*
X146291Y164008D02*
X158102D01*
X152197Y158102D02*
Y169913D01*
X158890Y177000D02*
X162827D01*
X160858Y175031D02*
Y178969D01*
X172276Y177000D02*
X181724D01*
X177000Y172276D02*
Y181724D01*
X175032Y191567D02*
X187630D01*
X181331Y185268D02*
Y197866D01*
X175032Y162433D02*
X187630D01*
X181331Y156134D02*
Y168732D01*
X10988Y168744D02*
X13783D01*
X12386Y167346D02*
Y170142D01*
X10988Y160870D02*
X13783D01*
X12386Y159472D02*
Y162268D01*
X10988Y152996D02*
X13783D01*
X12386Y151598D02*
Y154394D01*
X10988Y145122D02*
X13783D01*
X12386Y143724D02*
Y146520D01*
X10988Y137248D02*
X13783D01*
X12386Y135850D02*
Y138646D01*
X10988Y129374D02*
X13783D01*
X12386Y127976D02*
Y130772D01*
X10988Y121500D02*
X13783D01*
X12386Y120102D02*
Y122898D01*
X10988Y113626D02*
X13783D01*
X12386Y112228D02*
Y115024D01*
X10988Y105752D02*
X13783D01*
X12386Y104354D02*
Y107150D01*
X10988Y97878D02*
X13783D01*
X12386Y96480D02*
Y99276D01*
X97602Y97878D02*
X100398D01*
X99000Y96480D02*
Y99276D01*
X97602Y105752D02*
X100398D01*
X99000Y104354D02*
Y107150D01*
X97602Y113626D02*
X100398D01*
X99000Y112228D02*
Y115024D01*
X97602Y121500D02*
X100398D01*
X99000Y120102D02*
Y122898D01*
X97602Y129374D02*
X100398D01*
X99000Y127976D02*
Y130772D01*
X97602Y137248D02*
X100398D01*
X99000Y135850D02*
Y138646D01*
X97602Y145122D02*
X100398D01*
X99000Y143724D02*
Y146520D01*
X97602Y152996D02*
X100398D01*
X99000Y151598D02*
Y154394D01*
X97602Y160870D02*
X100398D01*
X99000Y159472D02*
Y162268D01*
X97602Y168744D02*
X100398D01*
X99000Y167346D02*
Y170142D01*
X60228Y15000D02*
X63772D01*
X62000Y13228D02*
Y16772D01*
X55228Y15000D02*
X58772D01*
X57000Y13228D02*
Y16772D01*
X50228Y15000D02*
X53772D01*
X52000Y13228D02*
Y16772D01*
X187335Y51000D02*
X191665D01*
X189500Y48835D02*
Y53165D01*
X187335Y71000D02*
X191665D01*
X189500Y68835D02*
Y73165D01*
X186228Y93000D02*
X189772D01*
X188000Y91228D02*
Y94772D01*
X176228Y93000D02*
X179772D01*
X178000Y91228D02*
Y94772D01*
X186228Y103000D02*
X189772D01*
X188000Y101228D02*
Y104772D01*
X176228Y103000D02*
X179772D01*
X178000Y101228D02*
Y104772D01*
X186228Y113000D02*
X189772D01*
X188000Y111228D02*
Y114772D01*
X176228Y113000D02*
X179772D01*
X178000Y111228D02*
Y114772D01*
X109024Y22000D02*
X111976D01*
X110500Y20524D02*
Y23476D01*
X109024Y42000D02*
X111976D01*
X110500Y40524D02*
Y43476D01*
X129787Y90500D02*
X131362D01*
X130575Y89713D02*
Y91287D01*
X49213Y50500D02*
X50787D01*
X50000Y49713D02*
Y51287D01*
X57787Y34000D02*
X59362D01*
X58575Y33213D02*
Y34787D01*
X143013Y88400D02*
X144587D01*
X143800Y87613D02*
Y89187D01*
X73760Y9935D02*
X75335D01*
X74547Y9148D02*
Y10723D01*
X127413Y81100D02*
X128987D01*
X128200Y80313D02*
Y81887D01*
X139013Y97900D02*
X140587D01*
X139800Y97113D02*
Y98687D01*
X130460Y16494D02*
X132034D01*
X131247Y15707D02*
Y17282D01*
X156613Y121500D02*
X158187D01*
X157400Y120713D02*
Y122287D01*
X121613Y66700D02*
X123187D01*
X122400Y65913D02*
Y67487D01*
X133013Y66700D02*
X134587D01*
X133800Y65913D02*
Y67487D01*
X159213Y110000D02*
X160787D01*
X160000Y109213D02*
Y110787D01*
X162713Y130200D02*
X164287D01*
X163500Y129413D02*
Y130987D01*
X142113Y121424D02*
X143687D01*
X142900Y120637D02*
Y122212D01*
X127813Y115200D02*
X129387D01*
X128600Y114413D02*
Y115987D01*
X140413Y80000D02*
X141987D01*
X141200Y79213D02*
Y80787D01*
M02*
